# Blender v2.83.0 OBJ File: 'iris_shells.blend'
# www.blender.org
mtllib batt.mtl
v -0.081536 0.110200 0.006840
v -0.081536 -0.109800 0.096840
v -0.081536 0.110200 0.096840
v -0.081536 -0.109800 0.006840
v -0.021536 -0.109800 0.096840
v -0.021536 0.110200 0.096840
v -0.021536 -0.109800 0.006840
v -0.021536 0.110200 0.006840
vn -1.0000 0.0000 0.0000
vn 0.0000 0.0000 1.0000
vn 1.0000 0.0000 0.0000
vn 0.0000 0.0000 -1.0000
vn 0.0000 1.0000 0.0000
vn 0.0000 -1.0000 0.0000
usemtl Part__Feature022.001
s off
f 1//1 2//1 3//1
f 1//1 4//1 2//1
f 5//2 6//2 2//2
f 2//2 6//2 3//2
f 7//3 6//3 5//3
f 7//3 8//3 6//3
f 4//4 8//4 7//4
f 1//4 8//4 4//4
f 8//5 1//5 3//5
f 8//5 3//5 6//5
f 4//6 7//6 2//6
f 2//6 7//6 5//6
