# Blender v2.83.0 OBJ File: 'iris_shells.blend'
# www.blender.org
mtllib motor_support_tl.mtl
v 0.433652 0.151051 -0.039870
v 0.434240 0.151233 -0.017870
v 0.431185 0.150907 -0.017870
v 0.433652 0.179763 -0.039870
v 0.431185 0.179907 -0.017870
v 0.434240 0.179581 -0.017870
v 0.437159 0.178619 -0.017870
v 0.437923 0.178246 -0.039870
v 0.439809 0.177064 -0.017870
v 0.442284 0.174959 0.000130
v 0.444410 0.171353 0.000130
v 0.440800 0.176260 -0.039870
v 0.442171 0.174894 -0.017876
v 0.443118 0.173644 -0.039870
v 0.444743 0.170549 -0.039870
v 0.445686 0.166997 0.000130
v 0.445579 0.167155 -0.039870
v 0.445579 0.163659 -0.039870
v 0.445363 0.162366 0.000130
v 0.444410 0.159461 0.000130
v 0.444743 0.160265 -0.039870
v 0.443118 0.157170 -0.039870
v 0.442129 0.155879 -0.017903
v 0.440800 0.154554 -0.039870
v 0.439809 0.153750 -0.017870
v 0.437923 0.152568 -0.039870
v 0.437159 0.152195 -0.017870
v 0.441707 0.153370 -0.007868
v 0.441890 0.155106 0.000130
v 0.442347 0.156005 -0.017035
v 0.440948 0.151362 -0.007872
v 0.440577 0.152613 -0.012752
v 0.441615 0.152675 -0.007874
v 0.441363 0.153938 -0.014654
v 0.435938 0.148777 -0.007871
v 0.430171 0.148231 -0.007870
v 0.441658 0.143480 -0.007870
v 0.441638 0.143327 0.000130
v 0.429464 0.143419 0.000130
v 0.429500 0.143221 -0.007870
v 0.430108 0.141549 0.000130
v 0.430537 0.140781 -0.007870
v 0.431349 0.139864 0.000130
v 0.432797 0.138865 -0.007870
v 0.433373 0.138657 0.000130
v 0.435419 0.138219 0.000130
v 0.435688 0.138219 -0.007870
v 0.438310 0.138865 0.000130
v 0.438548 0.138990 -0.007870
v 0.440570 0.140781 0.000130
v 0.440723 0.141002 -0.007870
v 0.425837 0.150888 -0.017739
v 0.424185 0.150907 -0.039870
v 0.425372 0.150892 -0.017336
v 0.425584 0.150865 0.000130
v 0.442352 0.174774 -0.017226
v 0.441670 0.176895 -0.012493
v 0.441771 0.176597 0.000130
v 0.441705 0.177444 -0.007870
v 0.441658 0.187334 -0.007870
v 0.441638 0.187487 0.000130
v 0.440723 0.189812 -0.007870
v 0.440570 0.190033 0.000130
v 0.439047 0.191468 -0.007870
v 0.438424 0.191875 0.000130
v 0.436904 0.192448 -0.007870
v 0.436295 0.192512 0.000130
v 0.434203 0.192448 0.000130
v 0.434812 0.192512 -0.007870
v 0.432558 0.191824 -0.007870
v 0.431550 0.191128 0.000130
v 0.430384 0.189812 -0.007870
v 0.430108 0.189265 0.000130
v 0.429500 0.187593 0.000130
v 0.429464 0.187395 -0.007870
v 0.428489 0.149839 -0.013733
v 0.428727 0.148855 -0.007869
v 0.428297 0.149363 -0.007870
v 0.426817 0.150528 -0.015728
v 0.429348 0.147158 0.000130
v 0.429358 0.147176 -0.007870
v 0.428778 0.148750 0.000130
v 0.427349 0.150219 0.000130
v 0.441503 0.178483 -0.007872
v 0.440755 0.179632 -0.007871
v 0.440715 0.178071 -0.012932
v 0.424185 0.179907 -0.039870
v 0.425612 0.179949 0.000130
v 0.435939 0.182036 -0.007871
v 0.430048 0.182548 -0.007871
v 0.428788 0.181473 -0.011706
v 0.427647 0.180380 -0.016099
v 0.425940 0.180026 -0.016903
v 0.425428 0.179912 -0.017766
v 0.428550 0.181700 -0.007872
v 0.427110 0.180478 -0.014614
v 0.429366 0.183739 0.000130
v 0.429337 0.183562 -0.007870
v 0.428778 0.182064 0.000130
v 0.427322 0.180577 0.000130
v 0.437258 0.183938 -0.007870
v 0.437799 0.184418 -0.007870
v 0.433849 0.188876 -0.007870
v 0.433308 0.188396 -0.007870
v 0.438210 0.185013 -0.007870
v 0.433849 0.183938 -0.007870
v 0.433308 0.184418 -0.007870
v 0.434490 0.189212 -0.007870
v 0.432897 0.185013 -0.007870
v 0.434490 0.183602 -0.007870
v 0.432641 0.185689 -0.007870
v 0.435192 0.183429 -0.007870
v 0.432554 0.186407 -0.007870
v 0.435915 0.183429 -0.007870
v 0.435192 0.189385 -0.007870
v 0.432641 0.187125 -0.007870
v 0.438466 0.187125 -0.007870
v 0.438554 0.186407 -0.007870
v 0.438466 0.185689 -0.007870
v 0.435915 0.189385 -0.007870
v 0.436617 0.183602 -0.007870
v 0.438210 0.187801 -0.007870
v 0.436617 0.189212 -0.007870
v 0.437258 0.188876 -0.007870
v 0.432897 0.187801 -0.007870
v 0.437799 0.188396 -0.007870
v 0.437258 0.141938 -0.007870
v 0.437799 0.142418 -0.007870
v 0.433849 0.146876 -0.007870
v 0.433308 0.146396 -0.007870
v 0.438210 0.143013 -0.007870
v 0.438466 0.143689 -0.007870
v 0.434490 0.147212 -0.007870
v 0.435192 0.147385 -0.007870
v 0.433308 0.142418 -0.007870
v 0.433849 0.141938 -0.007870
v 0.435915 0.147385 -0.007870
v 0.432897 0.143013 -0.007870
v 0.434490 0.141602 -0.007870
v 0.432641 0.143689 -0.007870
v 0.435192 0.141429 -0.007870
v 0.432554 0.144407 -0.007870
v 0.438466 0.145125 -0.007870
v 0.438554 0.144407 -0.007870
v 0.438210 0.145801 -0.007870
v 0.435915 0.141429 -0.007870
v 0.437258 0.146876 -0.007870
v 0.437799 0.146396 -0.007870
v 0.436617 0.147212 -0.007870
v 0.432641 0.145125 -0.007870
v 0.436617 0.141602 -0.007870
v 0.432897 0.145801 -0.007870
v 0.415144 0.176744 -0.039870
v 0.412848 0.174448 -0.039870
v 0.411812 0.172968 -0.017475
v 0.414590 0.176416 0.000130
v 0.420024 0.151439 0.000130
v 0.417894 0.178471 -0.039870
v 0.420024 0.179375 0.000130
v 0.420958 0.179543 -0.039870
v 0.420958 0.151271 -0.039870
v 0.417894 0.152343 -0.039870
v 0.414590 0.154398 0.000130
v 0.415144 0.154070 -0.039870
v 0.411812 0.157846 -0.017475
v 0.411812 0.157846 0.000130
v 0.412848 0.156366 -0.039870
v 0.411694 0.158044 -0.017643
v 0.411121 0.159116 -0.039870
v 0.411514 0.158358 -0.017796
v 0.411299 0.158740 -0.017866
v 0.410013 0.162085 -0.017870
v 0.410049 0.162180 -0.039870
v 0.409685 0.165407 -0.039870
v 0.409693 0.166506 -0.017870
v 0.410049 0.168634 -0.039870
v 0.410377 0.169834 -0.017870
v 0.411812 0.172968 0.000130
v 0.411121 0.171698 -0.039870
v 0.411377 0.172218 -0.017853
v 0.411671 0.172732 -0.017674
v 0.408331 0.159988 -0.007870
v 0.408608 0.159970 0.000130
v 0.409227 0.159815 -0.007874
v 0.410204 0.159419 0.000130
v 0.411856 0.157876 0.000130
v 0.411737 0.157993 -0.017603
v 0.411812 0.157846 -0.017475
v 0.402511 0.160085 0.000130
v 0.402604 0.170756 0.000130
v 0.402578 0.170735 -0.007870
v 0.400454 0.169898 -0.007870
v 0.400469 0.169875 0.000130
v 0.399104 0.168479 0.000130
v 0.398681 0.167831 -0.007870
v 0.398299 0.166824 0.000130
v 0.398186 0.166059 -0.007870
v 0.398186 0.164755 0.000130
v 0.398299 0.163990 -0.007870
v 0.398681 0.162983 0.000130
v 0.399560 0.161710 -0.007870
v 0.400365 0.160996 0.000130
v 0.402110 0.160121 -0.007870
v 0.411501 0.158360 -0.017800
v 0.409845 0.160471 -0.015384
v 0.410263 0.159389 -0.013625
v 0.408849 0.161286 -0.012721
v 0.407480 0.161549 -0.007870
v 0.408133 0.160544 -0.007873
v 0.409663 0.160133 -0.013992
v 0.408663 0.170856 0.000130
v 0.408698 0.170825 -0.007872
v 0.411812 0.172968 -0.017475
v 0.411677 0.172727 -0.017673
v 0.411812 0.172968 0.000130
v 0.410661 0.171643 0.000130
v 0.410074 0.171314 -0.012834
v 0.408964 0.170875 -0.007874
v 0.401308 0.167396 -0.007870
v 0.405258 0.162938 -0.007870
v 0.405799 0.163418 -0.007870
v 0.401849 0.167876 -0.007870
v 0.406210 0.164013 -0.007870
v 0.402490 0.168212 -0.007870
v 0.401308 0.163418 -0.007870
v 0.406466 0.164689 -0.007870
v 0.406982 0.165407 -0.007868
v 0.401849 0.162938 -0.007870
v 0.400897 0.164013 -0.007870
v 0.406554 0.165407 -0.007870
v 0.402490 0.162602 -0.007870
v 0.400641 0.164689 -0.007870
v 0.403192 0.162429 -0.007870
v 0.400554 0.165407 -0.007870
v 0.403915 0.162429 -0.007870
v 0.403192 0.168385 -0.007870
v 0.400641 0.166125 -0.007870
v 0.404617 0.162602 -0.007870
v 0.406466 0.166125 -0.007870
v 0.406210 0.166801 -0.007870
v 0.400897 0.166801 -0.007870
v 0.403915 0.168385 -0.007870
v 0.404617 0.168212 -0.007870
v 0.405799 0.167396 -0.007870
v 0.407528 0.169404 -0.007871
v 0.405258 0.167876 -0.007870
v 0.410377 0.169834 -0.017870
v 0.411380 0.172240 -0.017851
v 0.410276 0.170821 -0.016298
v 0.409859 0.167647 -0.017870
v 0.408874 0.169546 -0.012792
v 0.409685 0.165407 -0.017870
v 0.410377 0.160980 -0.017870
v 0.409859 0.163167 -0.017870
v 0.410806 0.171790 -0.015965
v 0.409371 0.170493 -0.013150
vn 0.1060 -0.9944 0.0054
vn 0.1060 0.9944 0.0054
vn 0.3131 0.9497 -0.0005
vn 0.5062 0.8624 0.0030
vn 0.3347 0.9423 -0.0043
vn 0.8614 0.5078 -0.0020
vn 0.6765 0.7364 0.0036
vn 0.5681 0.8230 -0.0045
vn 0.6003 0.7995 -0.0196
vn 0.7485 0.6631 -0.0054
vn 0.9597 0.2811 0.0023
vn 0.8854 0.4647 0.0068
vn 0.8635 0.5044 -0.0030
vn 0.9709 0.2393 -0.0016
vn 0.9976 -0.0696 0.0032
vn 1.0000 0.0000 -0.0027
vn 0.8655 -0.5009 -0.0032
vn 0.9502 -0.3116 0.0016
vn 0.9709 -0.2393 -0.0025
vn 0.8649 -0.5019 -0.0029
vn 0.5662 -0.8240 -0.0229
vn 0.8854 -0.4647 0.0062
vn 0.6762 -0.7367 0.0036
vn 0.7485 -0.6631 -0.0053
vn 0.5062 -0.8624 0.0030
vn 0.5681 -0.8230 -0.0045
vn 0.3131 -0.9497 -0.0005
vn 0.3347 -0.9423 -0.0043
vn 0.9834 -0.1809 0.0167
vn 0.8768 -0.4456 -0.1809
vn 0.9706 -0.1264 -0.2049
vn 0.7942 -0.6009 -0.0905
vn 0.8576 -0.5070 -0.0858
vn 0.8291 -0.5439 -0.1296
vn 0.1025 -0.9619 -0.2536
vn 0.0913 -0.9642 -0.2488
vn 0.4969 -0.8466 -0.1908
vn 0.6485 -0.7109 -0.2720
vn 0.3105 -0.9416 -0.1304
vn 0.5558 -0.7721 -0.3082
vn 0.4166 -0.8639 -0.2829
vn 0.4434 -0.8596 -0.2540
vn 1.0000 -0.0049 0.0025
vn 0.9996 -0.0214 -0.0182
vn -0.9203 -0.3911 -0.0118
vn -0.9454 -0.3258 0.0038
vn -0.8051 -0.5930 0.0138
vn -0.6465 -0.7626 -0.0217
vn -0.5124 -0.8586 0.0145
vn -0.2181 -0.9759 -0.0073
vn -0.2093 -0.9778 -0.0104
vn 0.2603 -0.9655 -0.0073
vn 0.2182 -0.9759 0.0073
vn 0.6792 -0.7339 -0.0073
vn 0.6467 -0.7627 0.0073
vn 0.9355 -0.3532 -0.0044
vn 0.9222 -0.3867 0.0069
vn 0.0034 -1.0000 -0.0061
vn 0.0152 -0.9999 -0.0020
vn -0.0082 -1.0000 -0.0002
vn 0.0211 -0.9998 -0.0018
vn 0.9543 0.2988 -0.0006
vn 0.9523 0.3051 0.0005
vn 1.0000 0.0030 -0.0079
vn 0.9999 0.0122 -0.0069
vn 1.0000 0.0047 0.0025
vn 0.9355 0.3532 -0.0044
vn 0.9222 0.3867 0.0069
vn 0.7030 0.7112 -0.0062
vn 0.6512 0.7588 0.0122
vn 0.4156 0.9094 -0.0139
vn 0.2867 0.9579 0.0141
vn 0.0307 0.9995 0.0104
vn -0.0307 0.9995 -0.0104
vn -0.2920 0.9563 -0.0145
vn -0.4452 0.8951 0.0218
vn -0.6791 0.7337 -0.0217
vn -0.7907 0.6121 0.0145
vn -0.9345 0.3560 -0.0046
vn -0.9397 0.3418 -0.0091
vn -0.0166 -0.9655 -0.2600
vn -0.0027 -0.9678 -0.2516
vn -0.7602 -0.6451 -0.0773
vn -0.2893 -0.9533 -0.0869
vn -0.3933 -0.9092 -0.1365
vn -0.1128 -0.9862 -0.1213
vn -0.4288 -0.9022 0.0476
vn -0.9361 -0.3518 0.0013
vn -0.9415 -0.3370 -0.0020
vn -0.7625 -0.6470 -0.0037
vn -0.6396 -0.7687 0.0064
vn -0.7167 -0.6973 -0.0103
vn -0.2452 -0.9695 0.0015
vn -0.3436 -0.9391 -0.0068
vn 0.8257 0.5372 -0.1723
vn 0.9811 0.1910 -0.0301
vn 0.7949 0.5822 -0.1712
vn 0.8245 0.5512 -0.1282
vn 0.7936 0.5907 -0.1458
vn 0.0152 0.9999 -0.0011
vn 0.0007 1.0000 -0.0065
vn 0.0399 0.9992 -0.0025
vn 0.6520 0.7106 -0.2645
vn 0.4889 0.8329 -0.2595
vn 0.3109 0.9430 -0.1191
vn 0.4302 0.8616 -0.2693
vn 0.4173 0.8636 -0.2829
vn 0.1025 0.9619 -0.2536
vn 0.0839 0.9657 -0.2456
vn -0.0040 0.9641 -0.2657
vn 0.0080 0.9699 -0.2433
vn -0.0354 0.9652 -0.2590
vn -0.4911 0.8672 -0.0817
vn -0.4040 0.9114 -0.0789
vn -0.2789 0.9464 -0.1630
vn -0.1481 0.9819 -0.1180
vn -0.1970 0.9803 -0.0134
vn -0.9434 0.3316 -0.0039
vn -0.9211 0.3893 0.0085
vn -0.7145 0.6996 -0.0115
vn -0.3450 0.9386 -0.0014
vn -0.6589 0.7523 0.0044
vn -0.3555 0.9347 -0.0026
vn -0.2189 0.9757 0.0002
vn -0.9995 0.0329 0.0029
vn -0.9994 0.0346 0.0036
vn -0.0011 0.0013 -1.0000
vn 0.0001 0.0003 -1.0000
vn -0.0000 0.0000 -1.0000
vn -0.0002 0.0001 -1.0000
vn 0.0002 0.0007 -1.0000
vn -0.0000 0.0005 -1.0000
vn 0.0001 0.0001 -1.0000
vn -0.0002 0.0005 -1.0000
vn 0.0006 0.0012 -1.0000
vn 0.0002 0.0008 -1.0000
vn 0.0000 0.0007 -1.0000
vn -0.0002 0.0002 -1.0000
vn -0.0001 0.0002 -1.0000
vn -0.0002 0.0007 -1.0000
vn 0.0085 0.0000 -1.0000
vn -0.0004 0.0008 -1.0000
vn -0.9995 -0.0310 -0.0014
vn -0.9994 -0.0357 -0.0036
vn 0.0002 -0.0008 -1.0000
vn 0.0006 -0.0012 -1.0000
vn -0.0001 -0.0004 -1.0000
vn 0.0000 -0.0007 -1.0000
vn -0.0011 -0.0013 -1.0000
vn -0.0004 -0.0008 -1.0000
vn -0.0002 -0.0007 -1.0000
vn -0.0003 -0.0002 -1.0000
vn -0.0002 -0.0002 -1.0000
vn 0.0000 -0.0004 -1.0000
vn -0.0021 -0.0004 -1.0000
vn -0.0005 0.0003 -1.0000
vn 0.0589 -0.0001 -0.9983
vn -0.0000 -0.0001 -1.0000
vn -0.7071 0.7070 0.0140
vn -0.7653 0.6437 -0.0053
vn -0.1027 -0.9947 0.0025
vn -0.5320 0.8467 -0.0004
vn -0.4783 0.8782 0.0056
vn -0.3303 0.9439 -0.0037
vn -0.1120 -0.9937 0.0016
vn -0.1119 0.9937 0.0016
vn -0.1020 0.9948 0.0026
vn -0.4783 -0.8782 0.0056
vn -0.3303 -0.9439 -0.0037
vn -0.5320 -0.8467 -0.0004
vn -0.7788 -0.6273 0.0000
vn -0.7653 -0.6437 -0.0053
vn -0.8554 -0.5179 -0.0053
vn -0.7071 -0.7070 0.0140
vn -0.8680 -0.4965 -0.0016
vn -0.8708 -0.4916 -0.0014
vn -0.9334 -0.3588 0.0014
vn -0.8467 -0.5321 -0.0038
vn -0.9439 -0.3302 -0.0030
vn -0.9974 -0.0722 0.0040
vn -0.9937 -0.1120 -0.0021
vn -0.9795 0.2015 0.0036
vn -0.9937 0.1120 -0.0052
vn -0.7788 0.6273 0.0000
vn -0.9439 0.3302 -0.0039
vn -0.9222 0.3867 0.0016
vn -0.8674 0.4976 -0.0016
vn -0.8467 0.5320 -0.0038
vn -0.8566 0.5159 -0.0056
vn -0.1897 -0.9818 0.0044
vn -0.3267 -0.9451 -0.0069
vn -0.6826 -0.7308 -0.0014
vn -0.3786 -0.9256 0.0004
vn -0.6540 -0.7565 -0.0075
vn -0.8415 -0.5403 0.0021
vn -0.8916 -0.4528 0.0030
vn -0.0213 -0.9998 -0.0015
vn -0.0187 -0.9998 -0.0036
vn -0.3665 0.9304 -0.0013
vn -0.3814 0.9244 0.0034
vn -0.7591 0.6508 -0.0126
vn -0.7151 0.6990 0.0034
vn -0.8993 0.4372 0.0121
vn -0.9631 0.2690 -0.0121
vn -0.9985 -0.0546 -0.0089
vn -0.9985 0.0546 0.0089
vn -0.9630 -0.2691 0.0121
vn -0.8750 -0.4838 -0.0191
vn -0.7626 -0.6465 0.0191
vn -0.5288 -0.8484 -0.0225
vn -0.3911 -0.9202 0.0154
vn -0.8435 -0.5232 -0.1212
vn -0.8209 -0.5611 -0.1063
vn -0.8213 -0.5333 -0.2028
vn -0.5430 -0.8144 -0.2047
vn -0.8931 -0.3966 -0.2124
vn -0.6881 -0.6796 -0.2544
vn -0.7895 -0.6118 0.0490
vn -0.8585 -0.4858 -0.1640
vn -0.0164 0.9999 -0.0039
vn -0.0147 0.9999 -0.0026
vn -0.8714 0.4905 0.0000
vn -0.7548 0.6559 -0.0031
vn -0.7328 0.6805 -0.0004
vn -0.5364 0.8440 0.0029
vn -0.3665 0.9303 -0.0116
vn -0.3900 0.9208 -0.0057
vn -0.1848 0.9828 -0.0046
vn -0.0001 0.0001 -1.0000
vn 0.0063 -0.0024 -1.0000
vn 0.0009 0.0006 -1.0000
vn 0.0036 -0.0004 -1.0000
vn 0.0036 0.0004 -1.0000
vn 0.0063 0.0024 -1.0000
vn 0.0007 -0.0007 -1.0000
vn -0.0002 -0.0003 -1.0000
vn -0.0058 -0.0072 -1.0000
vn -0.0003 -0.0004 -1.0000
vn -0.0258 -0.0144 -0.9996
vn -0.0000 -0.0003 -1.0000
vn -0.8828 0.3700 -0.2895
vn -0.9527 0.2258 -0.2034
vn -0.9732 0.0757 -0.2171
vn -0.9258 0.2583 -0.2762
vn -0.9427 -0.2234 -0.2478
vn -0.8913 -0.3671 -0.2662
vn -0.9573 0.1306 -0.2580
vn -0.9729 -0.0756 -0.2184
vn -0.9873 0.0015 -0.1590
vn -0.9334 -0.0003 -0.3589
vn -0.9302 -0.2461 -0.2723
vn -0.9568 -0.1234 -0.2633
vn -0.8486 0.5112 -0.1362
vn -0.8273 0.5487 -0.1208
vn -0.1806 0.9503 -0.2537
vn -0.7579 0.6243 -0.1893
vn -0.8215 0.5541 -0.1346
vn -0.7754 0.5342 0.3367
vn -0.8957 0.3881 -0.2170
vn -0.8338 0.5199 -0.1855
vn -0.7437 0.6645 -0.0729
usemtl Shell025.001
s off
f 1//1 2//1 3//1
f 4//2 5//2 6//2
f 4//3 6//3 7//3
f 8//4 7//4 9//4
f 8//5 4//5 7//5
f 56//6 10//6 11//6
f 12//7 9//7 13//7
f 12//8 8//8 9//8
f 14//9 13//9 56//9
f 14//10 12//10 13//10
f 15//11 11//11 16//11
f 15//12 14//12 56//12
f 15//13 56//13 11//13
f 17//14 15//14 16//14
f 18//15 16//15 19//15
f 18//16 17//16 16//16
f 30//17 20//17 29//17
f 21//18 19//18 20//18
f 21//19 18//19 19//19
f 21//20 20//20 30//20
f 22//21 30//21 23//21
f 22//22 21//22 30//22
f 24//23 23//23 25//23
f 24//24 22//24 23//24
f 26//25 25//25 27//25
f 26//26 24//26 25//26
f 1//27 27//27 2//27
f 1//28 26//28 27//28
f 28//29 30//29 29//29
f 33//30 31//30 32//30
f 33//31 32//31 28//31
f 34//32 28//32 32//32
f 34//33 30//33 28//33
f 30//34 34//34 23//34
f 35//35 3//35 2//35
f 35//36 36//36 3//36
f 34//37 27//37 25//37
f 34//38 25//38 23//38
f 32//39 2//39 27//39
f 32//40 27//40 34//40
f 35//41 2//41 32//41
f 31//42 35//42 32//42
f 28//43 38//43 37//43
f 29//44 38//44 28//44
f 41//45 40//45 42//45
f 41//46 39//46 40//46
f 43//47 41//47 42//47
f 43//48 42//48 44//48
f 45//49 43//49 44//49
f 46//50 44//50 47//50
f 46//51 45//51 44//51
f 48//52 47//52 49//52
f 48//53 46//53 47//53
f 50//54 49//54 51//54
f 50//55 48//55 49//55
f 38//56 51//56 37//56
f 38//57 50//57 51//57
f 3//58 52//58 1//58
f 1//59 52//59 53//59
f 52//60 54//60 53//60
f 55//61 53//61 54//61
f 10//62 57//62 58//62
f 56//63 57//63 10//63
f 57//64 59//64 58//64
f 61//65 58//65 59//65
f 61//66 59//66 60//66
f 61//67 60//67 62//67
f 63//68 61//68 62//68
f 63//69 62//69 64//69
f 65//70 63//70 64//70
f 65//71 64//71 66//71
f 67//72 65//72 66//72
f 68//73 66//73 69//73
f 68//74 67//74 66//74
f 68//75 69//75 70//75
f 71//76 68//76 70//76
f 71//77 70//77 72//77
f 73//78 71//78 72//78
f 74//79 72//79 75//79
f 74//80 73//80 72//80
f 3//81 36//81 76//81
f 52//82 3//82 76//82
f 76//83 77//83 78//83
f 79//84 76//84 78//84
f 77//85 76//85 36//85
f 79//86 54//86 52//86
f 79//87 52//87 76//87
f 81//88 82//88 77//88
f 80//89 82//89 81//89
f 77//90 82//90 78//90
f 78//91 83//91 79//91
f 82//92 83//92 78//92
f 79//93 55//93 54//93
f 83//94 55//94 79//94
f 85//95 84//95 86//95
f 57//96 84//96 59//96
f 57//97 86//97 84//97
f 13//98 57//98 56//98
f 13//99 86//99 57//99
f 87//100 94//100 4//100
f 94//101 5//101 4//101
f 87//102 88//102 94//102
f 9//103 86//103 13//103
f 86//104 9//104 7//104
f 6//105 86//105 7//105
f 89//106 85//106 86//106
f 89//107 86//107 6//107
f 89//108 6//108 5//108
f 90//109 89//109 5//109
f 5//110 94//110 92//110
f 5//111 92//111 91//111
f 5//112 91//112 90//112
f 91//113 95//113 90//113
f 91//114 96//114 95//114
f 96//115 91//115 92//115
f 93//116 96//116 92//116
f 93//117 92//117 94//117
f 97//118 98//118 99//118
f 98//119 95//119 99//119
f 99//120 95//120 100//120
f 100//121 96//121 88//121
f 95//122 96//122 100//122
f 96//123 93//123 88//123
f 93//124 94//124 88//124
f 97//125 75//125 98//125
f 97//126 74//126 75//126
f 101//127 102//127 89//127
f 89//128 102//128 85//128
f 72//129 103//129 104//129
f 102//130 105//130 85//130
f 95//131 98//131 90//131
f 72//129 70//129 103//129
f 90//132 106//132 89//132
f 107//133 106//133 90//133
f 103//129 70//129 108//129
f 98//134 109//134 90//134
f 90//133 109//133 107//133
f 106//135 110//135 89//135
f 75//129 111//129 98//129
f 98//129 111//129 109//129
f 110//136 112//136 89//136
f 75//129 113//129 111//129
f 112//137 114//137 89//137
f 108//129 69//129 115//129
f 70//129 69//129 108//129
f 75//129 116//129 113//129
f 117//129 60//129 118//129
f 119//129 60//129 105//129
f 118//129 60//129 119//129
f 85//138 60//138 84//138
f 105//139 60//139 85//139
f 115//129 66//129 120//129
f 114//140 121//140 89//140
f 69//129 66//129 115//129
f 122//129 60//129 117//129
f 120//129 66//129 123//129
f 122//129 62//129 60//129
f 123//129 64//129 124//129
f 72//129 125//129 75//129
f 66//129 64//129 123//129
f 75//129 125//129 116//129
f 126//129 62//129 122//129
f 124//129 62//129 126//129
f 64//129 62//129 124//129
f 60//141 59//141 84//141
f 121//142 101//142 89//142
f 72//129 104//129 125//129
f 39//143 80//143 81//143
f 39//144 81//144 40//144
f 127//129 128//129 49//129
f 128//129 51//129 49//129
f 36//129 129//129 130//129
f 131//129 51//129 128//129
f 132//129 51//129 131//129
f 133//145 35//145 134//145
f 129//146 35//146 133//146
f 36//147 35//147 129//147
f 42//129 135//129 44//129
f 135//129 136//129 44//129
f 35//148 137//148 134//148
f 42//129 138//129 135//129
f 136//129 139//129 44//129
f 40//129 140//129 42//129
f 42//129 140//129 138//129
f 44//129 141//129 47//129
f 139//129 141//129 44//129
f 132//129 37//129 51//129
f 143//129 37//129 144//129
f 145//129 37//129 143//129
f 40//129 142//129 140//129
f 144//129 37//129 132//129
f 47//129 146//129 49//129
f 147//149 35//149 148//149
f 141//129 146//129 47//129
f 149//150 35//150 147//150
f 137//151 35//151 149//151
f 148//152 31//152 145//152
f 145//153 31//153 37//153
f 35//154 31//154 148//154
f 81//129 150//129 40//129
f 31//155 33//155 37//155
f 40//129 150//129 142//129
f 77//156 36//156 81//156
f 28//157 37//157 33//157
f 146//129 151//129 49//129
f 81//129 152//129 150//129
f 151//129 127//129 49//129
f 81//158 36//158 152//158
f 36//129 130//129 152//129
f 153//159 154//159 155//159
f 153//160 155//160 156//160
f 53//161 55//161 157//161
f 158//162 153//162 156//162
f 158//163 156//163 159//163
f 160//164 158//164 159//164
f 161//165 53//165 157//165
f 87//166 160//166 159//166
f 87//167 159//167 88//167
f 162//168 157//168 163//168
f 162//169 161//169 157//169
f 164//170 162//170 163//170
f 165//171 163//171 166//171
f 165//172 164//172 163//172
f 167//173 165//173 168//173
f 167//174 164//174 165//174
f 169//175 168//175 170//175
f 169//176 170//176 171//176
f 169//177 171//177 172//177
f 169//178 167//178 168//178
f 173//179 169//179 172//179
f 174//180 172//180 175//180
f 174//181 173//181 172//181
f 176//182 175//182 177//182
f 176//183 174//183 175//183
f 155//184 178//184 156//184
f 179//185 176//185 177//185
f 179//186 177//186 180//186
f 179//187 180//187 181//187
f 154//188 179//188 181//188
f 154//189 181//189 155//189
f 182//190 184//190 183//190
f 183//191 184//191 185//191
f 185//192 206//192 186//192
f 184//193 206//193 185//193
f 206//194 204//194 186//194
f 204//195 187//195 186//195
f 187//196 188//196 186//196
f 183//197 203//197 182//197
f 183//198 189//198 203//198
f 190//199 191//199 192//199
f 193//200 190//200 192//200
f 194//201 192//201 195//201
f 194//202 193//202 192//202
f 196//203 194//203 195//203
f 196//204 195//204 197//204
f 198//205 197//205 199//205
f 198//206 196//206 197//206
f 200//207 198//207 199//207
f 200//208 199//208 201//208
f 202//209 200//209 201//209
f 202//210 201//210 203//210
f 189//211 202//211 203//211
f 204//212 206//212 205//212
f 206//213 184//213 207//213
f 209//214 208//214 207//214
f 184//215 209//215 207//215
f 210//216 207//216 205//216
f 206//217 210//217 205//217
f 206//218 207//218 210//218
f 204//219 205//219 171//219
f 190//220 211//220 212//220
f 190//221 212//221 191//221
f 213//222 214//222 215//222
f 215//223 214//223 216//223
f 214//224 255//224 216//224
f 255//225 217//225 216//225
f 216//226 218//226 211//226
f 217//227 218//227 216//227
f 218//228 212//228 211//228
f 195//129 192//129 219//129
f 221//229 208//229 220//229
f 192//129 222//129 219//129
f 221//229 223//229 208//229
f 222//129 192//129 224//129
f 226//230 227//230 223//230
f 223//231 227//231 208//231
f 201//129 228//129 203//129
f 225//129 228//129 201//129
f 199//129 229//129 201//129
f 226//232 230//232 227//232
f 201//129 229//129 225//129
f 228//129 231//129 203//129
f 199//129 232//129 229//129
f 231//129 233//129 203//129
f 197//129 234//129 199//129
f 199//129 234//129 232//129
f 233//129 235//129 203//129
f 224//129 191//129 236//129
f 192//129 191//129 224//129
f 195//129 237//129 197//129
f 197//129 237//129 234//129
f 235//129 238//129 203//129
f 239//233 227//233 230//233
f 240//234 227//234 239//234
f 195//129 241//129 237//129
f 242//129 191//129 243//129
f 236//129 191//129 242//129
f 244//152 245//152 240//152
f 246//153 245//153 244//153
f 240//235 245//235 227//235
f 243//236 245//236 246//236
f 195//129 219//129 241//129
f 191//153 245//153 243//153
f 209//237 184//237 182//237
f 191//238 212//238 245//238
f 182//239 208//239 209//239
f 220//139 208//139 238//139
f 203//240 208//240 182//240
f 238//229 208//229 203//229
f 249//241 248//241 247//241
f 250//242 249//242 247//242
f 251//243 250//243 252//243
f 251//244 249//244 250//244
f 205//245 254//245 253//245
f 205//246 253//246 171//246
f 227//247 245//247 251//247
f 207//248 252//248 254//248
f 207//249 251//249 252//249
f 207//250 227//250 251//250
f 207//251 254//251 205//251
f 208//252 227//252 207//252
f 248//253 249//253 255//253
f 248//254 255//254 214//254
f 212//255 218//255 251//255
f 245//256 212//256 251//256
f 217//257 251//257 218//257
f 256//258 251//258 217//258
f 256//259 249//259 251//259
f 255//260 249//260 256//260
f 255//261 256//261 217//261
