# Blender v2.83.0 OBJ File: 'iris_shells.blend'
# www.blender.org
mtllib motor_support_dr.mtl
v 0.411812 -0.172922 0.033235
v 0.411676 -0.172683 0.033434
v 0.411812 -0.172922 0.015630
v 0.410661 -0.171597 0.015630
v 0.410074 -0.171269 0.028594
v 0.408964 -0.170829 0.023634
v 0.408663 -0.170810 0.015630
v 0.408698 -0.170779 0.023632
v 0.402604 -0.170711 0.015630
v 0.402578 -0.170689 0.023630
v 0.411380 -0.172195 0.033611
v 0.410276 -0.170775 0.032058
v 0.410806 -0.171745 0.031725
v 0.408874 -0.169500 0.028552
v 0.407528 -0.169359 0.023631
v 0.409371 -0.170448 0.028910
v 0.410377 -0.169788 0.033630
v 0.409859 -0.167602 0.033630
v 0.409685 -0.165362 0.033630
v 0.411361 -0.158572 0.033618
v 0.410377 -0.160935 0.033630
v 0.409845 -0.160426 0.031144
v 0.409859 -0.163121 0.033630
v 0.406982 -0.165362 0.023628
v 0.408849 -0.161240 0.028481
v 0.407480 -0.161503 0.023630
v 0.400454 -0.169853 0.023630
v 0.400469 -0.169830 0.015630
v 0.398791 -0.167995 0.015630
v 0.398681 -0.167785 0.023630
v 0.398113 -0.165480 0.015630
v 0.398113 -0.165243 0.023630
v 0.398681 -0.162938 0.015630
v 0.398498 -0.163444 0.023630
v 0.399560 -0.161665 0.023630
v 0.400365 -0.160951 0.015630
v 0.402110 -0.160076 0.023630
v 0.402511 -0.160039 0.015630
v 0.411535 -0.158263 0.033537
v 0.410255 -0.159354 0.029395
v 0.409227 -0.159770 0.023634
v 0.411739 -0.157945 0.033362
v 0.411812 -0.157801 0.033235
v 0.408133 -0.160499 0.023633
v 0.409663 -0.160088 0.029752
v 0.408331 -0.159943 0.023630
v 0.408608 -0.159925 0.015630
v 0.410204 -0.159374 0.015630
v 0.411856 -0.157830 0.015630
v 0.401308 -0.167351 0.023630
v 0.405799 -0.163372 0.023630
v 0.405258 -0.162893 0.023630
v 0.401849 -0.167831 0.023630
v 0.406210 -0.163967 0.023630
v 0.402490 -0.168167 0.023630
v 0.401308 -0.163372 0.023630
v 0.406466 -0.164644 0.023630
v 0.401849 -0.162893 0.023630
v 0.400897 -0.163967 0.023630
v 0.402490 -0.162556 0.023630
v 0.406554 -0.165362 0.023630
v 0.400641 -0.164644 0.023630
v 0.403192 -0.162383 0.023630
v 0.400554 -0.165362 0.023630
v 0.403192 -0.168340 0.023630
v 0.403915 -0.162383 0.023630
v 0.400641 -0.166080 0.023630
v 0.404617 -0.162556 0.023630
v 0.406466 -0.166080 0.023630
v 0.406210 -0.166756 0.023630
v 0.400897 -0.166756 0.023630
v 0.403915 -0.168340 0.023630
v 0.404617 -0.168167 0.023630
v 0.405799 -0.167351 0.023630
v 0.405258 -0.167831 0.023630
v 0.415144 -0.176698 0.055630
v 0.412848 -0.174402 0.055630
v 0.411812 -0.172922 0.033235
v 0.414590 -0.176371 0.015630
v 0.424185 -0.150862 0.055630
v 0.424185 -0.150862 0.015630
v 0.420024 -0.151393 0.015630
v 0.417894 -0.178426 0.055630
v 0.420024 -0.179330 0.015630
v 0.420958 -0.179498 0.055630
v 0.420958 -0.151225 0.055630
v 0.424185 -0.179862 0.055630
v 0.424185 -0.179862 0.015630
v 0.417894 -0.152297 0.055630
v 0.414590 -0.154353 0.015630
v 0.415144 -0.154025 0.055630
v 0.411812 -0.157801 0.033235
v 0.411812 -0.157801 0.015630
v 0.412848 -0.156321 0.055630
v 0.411643 -0.158086 0.033462
v 0.411121 -0.159070 0.055630
v 0.411359 -0.158588 0.033619
v 0.410013 -0.162039 0.033630
v 0.410049 -0.162135 0.055630
v 0.409685 -0.165362 0.055630
v 0.409693 -0.166461 0.033630
v 0.410049 -0.168588 0.055630
v 0.410377 -0.169788 0.033630
v 0.411812 -0.172922 0.015630
v 0.411121 -0.171653 0.055630
v 0.411377 -0.172173 0.033613
v 0.424185 -0.179862 0.055630
v 0.433652 -0.179718 0.055630
v 0.431185 -0.179862 0.033630
v 0.424185 -0.179835 0.015630
v 0.433652 -0.151005 0.055630
v 0.434240 -0.151187 0.033630
v 0.431185 -0.150862 0.033630
v 0.434240 -0.179536 0.033630
v 0.437159 -0.178574 0.033630
v 0.437923 -0.178201 0.055630
v 0.439809 -0.177018 0.033630
v 0.442284 -0.174914 0.015630
v 0.444410 -0.171308 0.015630
v 0.440800 -0.176215 0.055630
v 0.442171 -0.174849 0.033636
v 0.443118 -0.173598 0.055630
v 0.444743 -0.170503 0.055630
v 0.445686 -0.166952 0.015630
v 0.445579 -0.167109 0.055630
v 0.445579 -0.163614 0.055630
v 0.444979 -0.160602 0.015630
v 0.444743 -0.160220 0.055630
v 0.443118 -0.157125 0.055630
v 0.442129 -0.155834 0.033663
v 0.440800 -0.154508 0.055630
v 0.439809 -0.153705 0.033630
v 0.437923 -0.152523 0.055630
v 0.437159 -0.152149 0.033630
v 0.429366 -0.183694 0.015630
v 0.429337 -0.183516 0.023630
v 0.428778 -0.182018 0.015630
v 0.428550 -0.181654 0.023632
v 0.426857 -0.180216 0.015630
v 0.425429 -0.179866 0.033526
v 0.428789 -0.181431 0.027453
v 0.430048 -0.182503 0.023631
v 0.427647 -0.180335 0.031859
v 0.427109 -0.180433 0.030365
v 0.425940 -0.179981 0.032662
v 0.440715 -0.178025 0.028692
v 0.435939 -0.181991 0.023631
v 0.429464 -0.187350 0.023630
v 0.429500 -0.187547 0.015630
v 0.441638 -0.187442 0.015630
v 0.441658 -0.187288 0.023630
v 0.440723 -0.189766 0.023630
v 0.440999 -0.189220 0.015630
v 0.439649 -0.190984 0.015630
v 0.438438 -0.191858 0.023630
v 0.437734 -0.192112 0.015630
v 0.435688 -0.192550 0.015630
v 0.435419 -0.192550 0.023630
v 0.433373 -0.192112 0.015630
v 0.433373 -0.192112 0.023630
v 0.431550 -0.191083 0.015630
v 0.431349 -0.190905 0.023630
v 0.430108 -0.189220 0.015630
v 0.430108 -0.189220 0.023630
v 0.441705 -0.177399 0.023630
v 0.441771 -0.176551 0.015630
v 0.442352 -0.174728 0.032986
v 0.441670 -0.176850 0.028253
v 0.441503 -0.178437 0.023632
v 0.440755 -0.179587 0.023631
v 0.441707 -0.153325 0.023628
v 0.441890 -0.155061 0.015630
v 0.442347 -0.155960 0.032795
v 0.429464 -0.143373 0.015630
v 0.429500 -0.143176 0.023630
v 0.430384 -0.140957 0.015630
v 0.430108 -0.141504 0.023630
v 0.431551 -0.139640 0.023630
v 0.432558 -0.138945 0.015630
v 0.434203 -0.138321 0.023630
v 0.434812 -0.138256 0.015630
v 0.436904 -0.138321 0.015630
v 0.436295 -0.138256 0.023630
v 0.438549 -0.138945 0.023630
v 0.439557 -0.139640 0.015630
v 0.440723 -0.140957 0.023630
v 0.440999 -0.141504 0.015630
v 0.441638 -0.143281 0.015630
v 0.441658 -0.143435 0.023630
v 0.429348 -0.147112 0.015630
v 0.429358 -0.147131 0.023630
v 0.428778 -0.148705 0.015630
v 0.428727 -0.148810 0.023629
v 0.428297 -0.149317 0.023630
v 0.426881 -0.150495 0.015630
v 0.426817 -0.150483 0.031488
v 0.425374 -0.150846 0.033094
v 0.424185 -0.150896 0.015630
v 0.440948 -0.151316 0.023632
v 0.440577 -0.152567 0.028512
v 0.441615 -0.152630 0.023634
v 0.441363 -0.153892 0.030414
v 0.428489 -0.149794 0.029493
v 0.425837 -0.150842 0.033499
v 0.430171 -0.148186 0.023630
v 0.435938 -0.148732 0.023631
v 0.437258 -0.141893 0.023630
v 0.437799 -0.142372 0.023630
v 0.433849 -0.146831 0.023630
v 0.433308 -0.146351 0.023630
v 0.438210 -0.142967 0.023630
v 0.438466 -0.143644 0.023630
v 0.434490 -0.147167 0.023630
v 0.435192 -0.147340 0.023630
v 0.433308 -0.142372 0.023630
v 0.433849 -0.141893 0.023630
v 0.435915 -0.147340 0.023630
v 0.432897 -0.142967 0.023630
v 0.434490 -0.141557 0.023630
v 0.432641 -0.143644 0.023630
v 0.435192 -0.141383 0.023630
v 0.432554 -0.144362 0.023630
v 0.438466 -0.145080 0.023630
v 0.438554 -0.144362 0.023630
v 0.438210 -0.145756 0.023630
v 0.435915 -0.141383 0.023630
v 0.437258 -0.146831 0.023630
v 0.437799 -0.146351 0.023630
v 0.436617 -0.147167 0.023630
v 0.432641 -0.145080 0.023630
v 0.436617 -0.141557 0.023630
v 0.432897 -0.145756 0.023630
v 0.424185 -0.150862 0.055630
v 0.433308 -0.188351 0.023630
v 0.432897 -0.187756 0.023630
v 0.437258 -0.183893 0.023630
v 0.437799 -0.184372 0.023630
v 0.438210 -0.184967 0.023630
v 0.433849 -0.188831 0.023630
v 0.433849 -0.183893 0.023630
v 0.434490 -0.189167 0.023630
v 0.433308 -0.184372 0.023630
v 0.432897 -0.184967 0.023630
v 0.434490 -0.183556 0.023630
v 0.432641 -0.185644 0.023630
v 0.435192 -0.183384 0.023630
v 0.432554 -0.186362 0.023630
v 0.435192 -0.189340 0.023630
v 0.435915 -0.183384 0.023630
v 0.438466 -0.187080 0.023630
v 0.438554 -0.186362 0.023630
v 0.438466 -0.185644 0.023630
v 0.432641 -0.187080 0.023630
v 0.435915 -0.189340 0.023630
v 0.436617 -0.189167 0.023630
v 0.436617 -0.183556 0.023630
v 0.438210 -0.187756 0.023630
v 0.437258 -0.188831 0.023630
v 0.437799 -0.188351 0.023630
vn -0.8699 -0.4932 0.0000
vn -0.7548 -0.6559 0.0031
vn -0.7333 -0.6799 0.0004
vn -0.5363 -0.8440 -0.0029
vn -0.3665 -0.9304 0.0116
vn -0.3900 -0.9208 0.0057
vn -0.1848 -0.9828 0.0046
vn -0.0164 -0.9999 0.0039
vn -0.0147 -0.9999 0.0026
vn -0.8486 -0.5111 0.1363
vn -0.8279 -0.5475 0.1213
vn -0.1805 -0.9503 0.2535
vn -0.7579 -0.6243 0.1893
vn -0.8215 -0.5541 0.1346
vn -0.7754 -0.5342 -0.3368
vn -0.8957 -0.3881 0.2170
vn -0.8338 -0.5199 0.1855
vn -0.7437 -0.6645 0.0729
vn -0.8828 -0.3700 0.2895
vn -0.9527 -0.2258 0.2034
vn -0.9732 -0.0757 0.2171
vn -0.9258 -0.2583 0.2762
vn -0.9427 0.2234 0.2478
vn -0.8892 0.3716 0.2667
vn -0.9573 -0.1306 0.2580
vn -0.9729 0.0756 0.2184
vn -0.9873 -0.0015 0.1590
vn -0.9334 0.0003 0.3589
vn -0.9302 0.2461 0.2723
vn -0.9568 0.1234 0.2633
vn -0.3665 -0.9304 0.0013
vn -0.3814 -0.9244 -0.0034
vn -0.7592 -0.6509 0.0066
vn -0.7380 -0.6748 -0.0033
vn -0.9759 -0.2181 0.0064
vn -0.9655 -0.2603 -0.0064
vn -0.9778 0.2093 -0.0091
vn -0.9759 0.2181 -0.0064
vn -0.8587 0.5124 0.0128
vn -0.7626 0.6466 -0.0191
vn -0.5288 0.8484 0.0225
vn -0.3911 0.9202 -0.0154
vn -0.8433 0.5232 0.1229
vn -0.8213 0.5605 0.1060
vn -0.8212 0.5334 0.2028
vn -0.5430 0.8144 0.2047
vn -0.8931 0.3966 0.2124
vn -0.6892 0.6785 0.2543
vn -0.7895 0.6118 -0.0490
vn -0.8478 0.5126 0.1357
vn -0.1897 0.9818 -0.0044
vn -0.3267 0.9451 0.0069
vn -0.6826 0.7308 0.0015
vn -0.3757 0.9267 0.0001
vn -0.6602 0.7511 0.0063
vn -0.8423 0.5390 -0.0021
vn -0.8926 0.4509 -0.0030
vn -0.0213 0.9998 0.0015
vn -0.0187 0.9998 0.0036
vn -0.0000 0.0000 1.0000
vn -0.0001 -0.0001 1.0000
vn 0.0009 -0.0006 1.0000
vn 0.0063 0.0024 1.0000
vn 0.0036 0.0004 1.0000
vn 0.0036 -0.0004 1.0000
vn 0.0063 -0.0024 1.0000
vn -0.0003 0.0002 1.0000
vn -0.0002 0.0002 1.0000
vn 0.0007 0.0007 1.0000
vn -0.0002 0.0003 1.0000
vn -0.0058 0.0072 1.0000
vn -0.0003 0.0004 1.0000
vn -0.0258 0.0144 0.9996
vn -0.0001 -0.0002 1.0000
vn -0.0000 0.0003 1.0000
vn -0.7071 -0.7070 -0.0140
vn -0.7653 -0.6437 0.0053
vn -0.1267 0.9919 0.0000
vn -0.4783 -0.8782 -0.0056
vn -0.5320 -0.8467 0.0004
vn -0.3303 -0.9439 0.0037
vn -0.1119 0.9937 -0.0016
vn -0.1267 -0.9919 0.0000
vn -0.1119 -0.9937 -0.0016
vn -0.4783 0.8782 -0.0056
vn -0.3303 0.9439 0.0037
vn -0.5320 0.8467 0.0004
vn -0.7787 0.6274 0.0000
vn -0.7653 0.6437 0.0053
vn -0.8581 0.5134 0.0058
vn -0.7071 0.7070 -0.0140
vn -0.8705 0.4922 0.0013
vn -0.9316 0.3635 -0.0021
vn -0.8467 0.5320 0.0037
vn -0.9439 0.3303 0.0030
vn -0.9974 0.0722 -0.0040
vn -0.9937 0.1120 0.0021
vn -0.9795 -0.2015 -0.0036
vn -0.9937 -0.1120 0.0052
vn -0.7787 -0.6273 0.0000
vn -0.9439 -0.3303 0.0039
vn -0.9222 -0.3867 -0.0016
vn -0.8623 -0.5065 0.0019
vn -0.8467 -0.5320 0.0035
vn -0.8673 -0.4977 0.0073
vn 0.0152 -0.9999 0.0011
vn 0.0007 -1.0000 0.0065
vn -0.0157 -0.9999 -0.0007
vn 0.1060 0.9944 -0.0054
vn 0.1060 -0.9944 -0.0054
vn 0.3131 -0.9497 0.0005
vn 0.5062 -0.8624 -0.0030
vn 0.3347 -0.9423 0.0043
vn 0.8614 -0.5078 0.0020
vn 0.6765 -0.7364 -0.0036
vn 0.5681 -0.8230 0.0045
vn 0.6000 -0.7997 0.0196
vn 0.7485 -0.6631 0.0054
vn 0.9597 -0.2811 -0.0023
vn 0.8854 -0.4647 -0.0068
vn 0.8635 -0.5044 0.0030
vn 0.9709 -0.2393 0.0016
vn 0.9939 0.1105 -0.0066
vn 1.0000 0.0000 0.0027
vn 0.8734 0.4870 0.0022
vn 0.9709 0.2393 0.0035
vn 0.8706 0.4920 0.0005
vn 0.5660 0.8241 0.0229
vn 0.8854 0.4647 -0.0062
vn 0.6762 0.7367 -0.0036
vn 0.7485 0.6631 0.0053
vn 0.5062 0.8624 -0.0030
vn 0.5681 0.8230 0.0045
vn 0.3131 0.9497 0.0005
vn 0.3347 0.9423 0.0043
vn -0.9434 -0.3316 0.0039
vn -0.9211 -0.3893 -0.0084
vn -0.6843 -0.7291 0.0137
vn -0.6469 -0.7625 -0.0002
vn -0.3730 -0.9278 -0.0073
vn -0.1412 -0.9900 0.0061
vn -0.1993 -0.9799 0.0121
vn -0.4911 -0.8673 0.0815
vn -0.4045 -0.9111 0.0787
vn -0.2794 -0.9463 0.1628
vn -0.1481 -0.9819 0.1179
vn -0.1967 -0.9804 0.0138
vn -0.0040 -0.9641 0.2657
vn 0.0080 -0.9699 0.2432
vn -0.0358 -0.9652 0.2590
vn 0.6521 -0.7105 0.2645
vn 0.4889 -0.8329 0.2595
vn 0.3109 -0.9430 0.1191
vn 0.4302 -0.8617 0.2693
vn 0.4173 -0.8636 0.2829
vn 0.1025 -0.9619 0.2536
vn 0.0839 -0.9657 0.2456
vn -0.9995 -0.0329 -0.0029
vn -0.9994 -0.0346 -0.0036
vn 0.9355 -0.3532 0.0044
vn 0.9411 -0.3381 0.0094
vn 0.6750 -0.7375 0.0216
vn 0.7941 -0.6077 -0.0141
vn 0.5075 -0.8615 -0.0172
vn 0.2236 -0.9747 0.0075
vn 0.2093 -0.9778 0.0127
vn -0.2093 -0.9778 0.0000
vn -0.1859 -0.9825 -0.0062
vn -0.5124 -0.8587 0.0062
vn -0.4917 -0.8707 0.0000
vn -0.8051 -0.5931 0.0000
vn -0.7907 -0.6121 -0.0062
vn -0.9454 -0.3258 0.0038
vn -0.9398 -0.3418 0.0000
vn 0.9999 -0.0122 0.0069
vn 1.0000 -0.0047 -0.0025
vn 0.8257 -0.5372 0.1723
vn 0.9811 -0.1911 0.0301
vn 0.7949 -0.5821 0.1712
vn 0.8243 -0.5514 0.1282
vn 0.7937 -0.5906 0.1458
vn 0.9543 -0.2988 0.0006
vn 0.9523 -0.3051 -0.0005
vn 1.0000 -0.0030 0.0079
vn 0.9834 0.1809 -0.0167
vn -0.9397 0.3418 -0.0091
vn -0.9345 0.3560 -0.0046
vn -0.7906 0.6121 0.0145
vn -0.6791 0.7337 -0.0217
vn -0.4452 0.8951 0.0217
vn -0.2920 0.9563 -0.0145
vn -0.0307 0.9995 -0.0104
vn 0.0307 0.9995 0.0104
vn 0.2920 0.9563 0.0145
vn 0.4452 0.8951 -0.0217
vn 0.6791 0.7338 0.0217
vn 0.7907 0.6121 -0.0145
vn 0.9355 0.3532 0.0044
vn 0.9411 0.3381 0.0094
vn -0.9995 0.0310 0.0014
vn -0.9994 0.0357 0.0036
vn -0.9361 0.3518 -0.0013
vn -0.9415 0.3370 0.0020
vn -0.7625 0.6470 0.0037
vn -0.6289 0.7775 -0.0031
vn -0.6862 0.7272 0.0144
vn -0.2458 0.9693 -0.0017
vn -0.1474 0.9891 0.0072
vn 1.0000 0.0049 -0.0025
vn 0.9996 0.0214 0.0182
vn 0.8768 0.4456 0.1809
vn 0.9706 0.1265 0.2049
vn 0.7942 0.6009 0.0905
vn 0.8576 0.5070 0.0858
vn 0.8291 0.5439 0.1296
vn -0.7602 0.6450 0.0773
vn -0.2894 0.9533 0.0869
vn -0.3932 0.9092 0.1365
vn -0.1133 0.9862 0.1211
vn -0.4289 0.9021 -0.0478
vn -0.0166 0.9655 0.2600
vn -0.0027 0.9678 0.2516
vn 0.1025 0.9619 0.2536
vn 0.0913 0.9642 0.2488
vn 0.4969 0.8466 0.1908
vn 0.6485 0.7109 0.2720
vn 0.3105 0.9416 0.1304
vn 0.5558 0.7721 0.3082
vn 0.4167 0.8639 0.2829
vn 0.4434 0.8596 0.2540
vn 0.0002 0.0008 1.0000
vn 0.0006 0.0012 1.0000
vn -0.0001 0.0004 1.0000
vn 0.0000 0.0007 1.0000
vn -0.0011 0.0013 1.0000
vn -0.0004 0.0008 1.0000
vn -0.0002 0.0007 1.0000
vn 0.0000 0.0004 1.0000
vn -0.0021 0.0004 1.0000
vn -0.0005 -0.0003 1.0000
vn 0.0589 0.0001 0.9983
vn -0.0000 0.0001 1.0000
vn 0.0034 1.0000 0.0061
vn 0.0152 0.9999 0.0020
vn -0.0078 1.0000 0.0003
vn -0.0297 0.9996 -0.0009
vn -0.0011 -0.0013 1.0000
vn 0.0001 -0.0003 1.0000
vn -0.0002 -0.0001 1.0000
vn 0.0002 -0.0007 1.0000
vn -0.0000 -0.0005 1.0000
vn 0.0001 -0.0001 1.0000
vn -0.0002 -0.0005 1.0000
vn 0.0006 -0.0012 1.0000
vn 0.0002 -0.0008 1.0000
vn 0.0000 -0.0007 1.0000
vn -0.0002 -0.0002 1.0000
vn -0.0002 -0.0007 1.0000
vn 0.0085 -0.0000 1.0000
vn -0.0004 -0.0008 1.0000
usemtl Shell024.001
s off
f 1//1 2//1 3//1
f 3//2 2//2 4//2
f 2//3 13//3 4//3
f 13//4 5//4 4//4
f 4//5 6//5 7//5
f 5//6 6//6 4//6
f 6//7 8//7 7//7
f 9//8 7//8 8//8
f 9//9 8//9 10//9
f 11//10 12//10 13//10
f 11//11 13//11 2//11
f 8//12 6//12 14//12
f 15//13 8//13 14//13
f 5//14 14//14 6//14
f 16//15 14//15 5//15
f 16//16 12//16 14//16
f 13//17 12//17 16//17
f 13//18 16//18 5//18
f 12//19 11//19 17//19
f 18//20 12//20 17//20
f 14//21 18//21 19//21
f 14//22 12//22 18//22
f 22//23 23//23 21//23
f 22//24 21//24 20//24
f 24//25 15//25 14//25
f 25//26 19//26 23//26
f 25//27 14//27 19//27
f 25//28 24//28 14//28
f 25//29 23//29 22//29
f 26//30 24//30 25//30
f 9//31 10//31 27//31
f 28//32 9//32 27//32
f 29//33 27//33 30//33
f 29//34 28//34 27//34
f 31//35 30//35 32//35
f 31//36 29//36 30//36
f 33//37 32//37 34//37
f 33//38 31//38 32//38
f 33//39 34//39 35//39
f 36//40 33//40 35//40
f 36//41 35//41 37//41
f 38//42 36//42 37//42
f 39//43 40//43 22//43
f 40//44 41//44 25//44
f 44//45 26//45 25//45
f 41//46 44//46 25//46
f 45//47 25//47 22//47
f 40//48 45//48 22//48
f 40//49 25//49 45//49
f 39//50 22//50 20//50
f 46//51 41//51 47//51
f 47//52 41//52 48//52
f 48//53 40//53 49//53
f 41//54 40//54 48//54
f 40//55 39//55 49//55
f 39//56 42//56 49//56
f 42//57 43//57 49//57
f 47//58 37//58 46//58
f 47//59 38//59 37//59
f 30//60 27//60 50//60
f 51//61 26//61 52//61
f 27//60 53//60 50//60
f 51//61 54//61 26//61
f 53//60 27//60 55//60
f 54//62 24//62 26//62
f 57//63 24//63 54//63
f 35//60 58//60 37//60
f 56//60 58//60 35//60
f 34//60 59//60 35//60
f 35//60 59//60 56//60
f 57//64 61//64 24//64
f 58//60 60//60 37//60
f 32//60 62//60 34//60
f 34//60 62//60 59//60
f 60//60 63//60 37//60
f 32//60 64//60 62//60
f 55//60 10//60 65//60
f 63//60 66//60 37//60
f 27//60 10//60 55//60
f 30//60 67//60 32//60
f 32//60 67//60 64//60
f 66//60 68//60 37//60
f 69//65 24//65 61//65
f 70//66 24//66 69//66
f 30//60 71//60 67//60
f 72//60 10//60 73//60
f 65//60 10//60 72//60
f 74//67 15//67 70//67
f 75//68 15//68 74//68
f 70//69 15//69 24//69
f 73//70 15//70 75//70
f 30//60 50//60 71//60
f 10//68 15//68 73//68
f 44//71 41//71 46//71
f 10//72 8//72 15//72
f 46//73 26//73 44//73
f 68//61 26//61 37//61
f 52//74 26//74 68//74
f 37//75 26//75 46//75
f 76//76 77//76 78//76
f 76//77 78//77 79//77
f 80//78 81//78 82//78
f 83//79 79//79 84//79
f 83//80 76//80 79//80
f 85//81 83//81 84//81
f 86//82 80//82 82//82
f 87//83 84//83 88//83
f 87//84 85//84 84//84
f 89//85 82//85 90//85
f 89//86 86//86 82//86
f 91//87 89//87 90//87
f 92//88 90//88 93//88
f 92//89 91//89 90//89
f 94//90 92//90 95//90
f 94//91 91//91 92//91
f 96//92 95//92 97//92
f 96//93 97//93 98//93
f 96//94 94//94 95//94
f 99//95 96//95 98//95
f 100//96 98//96 101//96
f 100//97 99//97 98//97
f 102//98 101//98 103//98
f 102//99 100//99 101//99
f 78//100 104//100 79//100
f 105//101 102//101 103//101
f 105//102 103//102 106//102
f 105//103 106//103 2//103
f 77//104 105//104 2//104
f 77//105 2//105 78//105
f 107//106 140//106 108//106
f 140//107 109//107 108//107
f 107//108 110//108 140//108
f 111//109 112//109 113//109
f 108//110 109//110 114//110
f 108//111 114//111 115//111
f 116//112 115//112 117//112
f 116//113 108//113 115//113
f 167//114 118//114 119//114
f 120//115 117//115 121//115
f 120//116 116//116 117//116
f 122//117 121//117 167//117
f 122//118 120//118 121//118
f 123//119 119//119 124//119
f 123//120 122//120 167//120
f 123//121 167//121 119//121
f 125//122 123//122 124//122
f 126//123 124//123 127//123
f 126//124 125//124 124//124
f 173//125 127//125 172//125
f 128//126 126//126 127//126
f 128//127 127//127 173//127
f 129//128 173//128 130//128
f 129//129 128//129 173//129
f 131//130 130//130 132//130
f 131//131 129//131 130//131
f 133//132 132//132 134//132
f 133//133 131//133 132//133
f 111//134 134//134 112//134
f 111//135 133//135 134//135
f 135//136 136//136 137//136
f 136//137 138//137 137//137
f 137//138 138//138 139//138
f 138//139 144//139 139//139
f 144//140 145//140 139//140
f 139//141 145//141 110//141
f 145//142 140//142 110//142
f 141//143 138//143 142//143
f 141//144 144//144 138//144
f 144//145 141//145 143//145
f 145//146 144//146 143//146
f 145//147 143//147 140//147
f 109//148 140//148 143//148
f 109//149 143//149 141//149
f 109//150 141//150 142//150
f 117//151 146//151 121//151
f 146//152 117//152 115//152
f 114//153 146//153 115//153
f 147//154 170//154 146//154
f 147//155 146//155 114//155
f 147//156 114//156 109//156
f 142//157 147//157 109//157
f 135//158 148//158 136//158
f 135//159 149//159 148//159
f 150//160 151//160 152//160
f 153//161 150//161 152//161
f 154//162 152//162 155//162
f 154//163 153//163 152//163
f 156//164 154//164 155//164
f 157//165 155//165 158//165
f 157//166 156//166 155//166
f 159//167 158//167 160//167
f 159//168 157//168 158//168
f 161//169 160//169 162//169
f 161//170 159//170 160//170
f 163//171 162//171 164//171
f 163//172 161//172 162//172
f 149//173 164//173 148//173
f 149//174 163//174 164//174
f 150//175 166//175 165//175
f 150//176 165//176 151//176
f 170//177 169//177 146//177
f 168//178 169//178 165//178
f 168//179 146//179 169//179
f 121//180 168//180 167//180
f 121//181 146//181 168//181
f 118//182 168//182 166//182
f 167//183 168//183 118//183
f 168//184 165//184 166//184
f 171//185 173//185 172//185
f 176//186 175//186 177//186
f 176//187 174//187 175//187
f 176//188 177//188 178//188
f 179//189 176//189 178//189
f 179//190 178//190 180//190
f 181//191 179//191 180//191
f 182//192 180//192 183//192
f 182//193 181//193 180//193
f 182//194 183//194 184//194
f 185//195 182//195 184//195
f 185//196 184//196 186//196
f 187//197 185//197 186//197
f 188//198 186//198 189//198
f 188//199 187//199 186//199
f 174//200 190//200 191//200
f 174//201 191//201 175//201
f 191//202 192//202 193//202
f 190//203 192//203 191//203
f 193//204 192//204 194//204
f 194//205 195//205 196//205
f 192//206 195//206 194//206
f 196//207 195//207 197//207
f 195//208 198//208 197//208
f 171//209 188//209 189//209
f 172//210 188//210 171//210
f 201//211 199//211 200//211
f 201//212 200//212 171//212
f 202//213 171//213 200//213
f 202//214 173//214 171//214
f 173//215 202//215 130//215
f 203//216 193//216 194//216
f 196//217 203//217 194//217
f 193//218 203//218 205//218
f 196//219 197//219 204//219
f 196//220 204//220 203//220
f 113//221 205//221 203//221
f 204//222 113//222 203//222
f 206//223 113//223 112//223
f 206//224 205//224 113//224
f 202//225 134//225 132//225
f 202//226 132//226 130//226
f 200//227 112//227 134//227
f 200//228 134//228 202//228
f 206//229 112//229 200//229
f 199//230 206//230 200//230
f 207//60 208//60 184//60
f 208//60 186//60 184//60
f 205//60 209//60 210//60
f 211//60 186//60 208//60
f 212//60 186//60 211//60
f 213//231 206//231 214//231
f 209//232 206//232 213//232
f 205//233 206//233 209//233
f 178//60 216//60 180//60
f 215//60 216//60 178//60
f 206//234 217//234 214//234
f 177//60 218//60 178//60
f 178//60 218//60 215//60
f 216//60 219//60 180//60
f 175//60 220//60 177//60
f 177//60 220//60 218//60
f 180//60 221//60 183//60
f 219//60 221//60 180//60
f 212//60 189//60 186//60
f 223//60 189//60 224//60
f 225//60 189//60 223//60
f 175//60 222//60 220//60
f 224//60 189//60 212//60
f 183//60 226//60 184//60
f 227//235 206//235 228//235
f 221//60 226//60 183//60
f 229//236 206//236 227//236
f 217//237 206//237 229//237
f 228//67 199//67 225//67
f 225//68 199//68 189//68
f 206//238 199//238 228//238
f 191//60 230//60 175//60
f 199//239 201//239 189//239
f 175//60 230//60 222//60
f 193//240 205//240 191//240
f 171//241 189//241 201//241
f 226//60 231//60 184//60
f 191//60 232//60 230//60
f 231//60 207//60 184//60
f 191//242 205//242 232//242
f 205//60 210//60 232//60
f 113//243 204//243 111//243
f 111//244 204//244 233//244
f 204//245 197//245 233//245
f 198//246 233//246 197//246
f 164//60 234//60 235//60
f 236//247 237//247 147//247
f 147//248 237//248 170//248
f 237//249 238//249 170//249
f 234//60 162//60 239//60
f 138//250 136//250 142//250
f 142//251 240//251 147//251
f 239//60 160//60 241//60
f 162//60 160//60 239//60
f 242//252 240//252 142//252
f 136//253 243//253 142//253
f 142//252 243//252 242//252
f 240//254 244//254 147//254
f 148//60 245//60 136//60
f 136//60 245//60 243//60
f 244//255 246//255 147//255
f 148//60 247//60 245//60
f 241//60 158//60 248//60
f 160//60 158//60 241//60
f 250//60 151//60 251//60
f 246//256 249//256 147//256
f 238//74 151//74 170//74
f 252//60 151//60 238//60
f 251//60 151//60 252//60
f 148//60 253//60 247//60
f 170//257 151//257 169//257
f 254//60 158//60 255//60
f 248//60 158//60 254//60
f 249//258 256//258 147//258
f 158//60 155//60 255//60
f 257//60 152//60 250//60
f 250//60 152//60 151//60
f 255//60 155//60 258//60
f 259//60 152//60 257//60
f 148//60 235//60 253//60
f 258//60 152//60 259//60
f 155//60 152//60 258//60
f 151//259 165//259 169//259
f 164//60 235//60 148//60
f 256//260 236//260 147//260
f 162//60 234//60 164//60
