# Blender v2.83.0 OBJ File: 'iris_shells.blend'
# www.blender.org
mtllib shield.mtl
v 0.054303 -0.110665 -0.167122
v 0.059928 0.037100 -0.166196
v 0.296072 0.109316 -0.095369
v 0.234515 0.109317 -0.118874
v -0.000426 -0.110669 -0.174274
v 0.193564 0.036946 -0.132601
v 0.260918 -0.000682 -0.109095
v 0.158430 0.109318 -0.142926
v 0.103980 0.109312 -0.157179
v -0.034284 -0.110644 -0.176417
v -0.156076 -0.110654 -0.163067
v -0.128599 -0.110682 -0.169209
v -0.002140 0.033530 -0.174371
v 0.227520 -0.110680 -0.121288
v -0.032483 0.040352 -0.176269
v -0.178673 -0.063909 -0.155644
v 0.141321 -0.018147 -0.147931
v -0.189348 -0.110683 -0.150638
v -0.029936 0.109315 -0.176630
v -0.083350 0.109305 -0.175673
v -0.186205 0.109318 -0.151845
v -0.209455 0.109285 -0.141063
v -0.178647 0.063867 -0.155668
v 0.160494 -0.110681 -0.142354
v 0.095712 -0.110675 -0.158992
v -0.227424 0.109299 -0.129916
v -0.247267 0.109318 -0.114466
v 0.302839 -0.110674 -0.092577
v -0.115601 0.109300 -0.172191
v -0.157828 -0.000614 -0.162512
v -0.195531 -0.000908 -0.148149
v 0.046078 0.109318 -0.168446
v -0.117549 -0.059118 -0.171864
v -0.145506 0.082908 -0.166106
v -0.230822 -0.000770 -0.127415
v -0.247242 -0.110668 -0.113986
v -0.083084 -0.110667 -0.175695
v -0.209422 -0.110649 -0.141081
v -0.157162 0.109318 -0.161905
v -0.081795 -0.001754 -0.175719
v -0.227424 -0.110663 -0.129916
v 0.346180 0.109320 -0.073065
v 0.347117 -0.110682 -0.073345
v -0.247267 0.109318 -0.111365
v -0.213756 0.109318 -0.137009
v -0.112615 0.109318 -0.170413
v -0.053402 0.109318 -0.174665
v 0.046109 0.109318 -0.166509
v 0.128248 0.109318 -0.149384
v 0.277224 0.109318 -0.101107
v 0.343435 -0.110682 -0.072223
v -0.226221 -0.110682 -0.128442
v -0.176492 -0.110682 -0.154436
v -0.112615 -0.110682 -0.170413
v -0.060715 -0.110682 -0.174610
v 0.036583 -0.110682 -0.167900
v 0.269489 -0.110682 -0.104153
vn 0.1296 0.0013 -0.9916
vn 0.3267 -0.0056 -0.9451
vn 0.3014 0.0103 -0.9534
vn 0.3315 0.0039 -0.9435
vn -0.2182 -0.0035 -0.9759
vn 0.2817 -0.0001 -0.9595
vn -0.3498 -0.0204 -0.9366
vn -0.0179 -0.0046 -0.9998
vn 0.1305 0.0009 -0.9914
vn 0.2884 -0.0070 -0.9575
vn 0.0625 0.0002 -0.9980
vn 0.0632 0.0001 -0.9980
vn -0.4207 0.0064 -0.9072
vn 0.2998 0.0046 -0.9540
vn 0.3567 0.0026 -0.9342
vn 0.3653 -0.0006 -0.9309
vn 0.3562 -0.0046 -0.9344
vn -0.3558 -0.0157 -0.9344
vn -0.2358 -0.0070 -0.9718
vn -0.3023 0.0036 -0.9532
vn -0.4225 0.0049 -0.9064
vn 0.2532 0.0040 -0.9674
vn -0.6144 0.0010 -0.7890
vn -0.5066 -0.0086 -0.8622
vn -0.5272 -0.0030 -0.8498
vn -0.3124 -0.0002 -0.9499
vn -0.3560 0.0159 -0.9343
vn -0.2243 0.0013 -0.9745
vn 0.1910 0.0060 -0.9816
vn -0.6259 -0.0018 -0.7799
vn -0.1410 -0.0207 -0.9898
vn -0.4218 -0.0050 -0.9067
vn -0.2399 0.0483 -0.9696
vn -0.3273 0.0058 -0.9449
vn -0.5065 0.0086 -0.8622
vn -0.4299 0.0015 -0.9029
vn 0.2488 -0.0068 -0.9685
vn -0.1061 -0.0007 -0.9944
vn -0.6265 -0.0016 -0.7794
vn -0.0114 0.0003 -0.9999
vn -0.1073 -0.0011 -0.9942
vn -0.5271 0.0030 -0.8498
vn -0.1998 0.0004 -0.9798
vn 0.4067 0.0009 -0.9136
vn 0.2374 -0.0009 -0.9714
vn 0.1996 0.0006 -0.9799
vn 0.1927 -0.0012 -0.9813
vn 0.1070 0.0096 -0.9942
vn 0.1309 -0.0058 -0.9914
vn -0.3146 0.0275 -0.9488
vn -0.0148 -0.0000 -0.9999
vn -0.0121 0.0011 -0.9999
vn -0.1089 0.0011 -0.9941
vn 0.0608 -0.0075 -0.9981
vn 0.3984 0.0029 -0.9172
vn 0.0010 1.0000 0.0000
vn -0.0043 1.0000 -0.0056
vn -0.0125 0.9997 -0.0214
vn -0.0101 0.9998 -0.0189
vn -0.0015 1.0000 -0.0079
vn -0.0011 1.0000 -0.0086
vn -0.0003 1.0000 -0.0042
vn -0.0003 1.0000 -0.0050
vn 0.0001 1.0000 -0.0009
vn -0.0000 1.0000 0.0000
vn 0.0001 1.0000 -0.0000
vn 0.0005 1.0000 -0.0023
vn 0.0005 1.0000 -0.0024
vn 0.0002 1.0000 -0.0007
vn 0.0006 1.0000 -0.0015
vn -1.0000 -0.0001 0.0000
vn 0.2915 0.0000 0.9566
vn 0.5666 -0.0098 0.8239
vn 0.6077 -0.0035 0.7941
vn 0.5157 0.0041 0.8567
vn 0.4741 0.0106 0.8804
vn 0.2832 -0.0280 0.9586
vn 0.3273 0.0111 0.9449
vn 0.2948 0.0018 0.9556
vn 0.1876 0.0000 0.9822
vn 0.0751 -0.0234 0.9969
vn 0.0716 -0.0021 0.9974
vn 0.0806 0.0000 0.9967
vn -0.0817 -0.0028 0.9967
vn -0.0688 0.0025 0.9976
vn -0.2041 0.0014 0.9789
vn -0.2019 0.0026 0.9794
vn -0.2092 0.0305 0.9774
vn -0.2998 -0.0135 0.9539
vn -0.3321 -0.0014 0.9433
vn -0.3778 -0.0276 0.9255
vn -0.3767 0.0082 0.9263
vn -0.3964 0.0012 0.9181
vn -0.0061 -0.9999 -0.0080
vn -0.0048 -0.9999 -0.0090
vn -0.0080 -0.9999 -0.0133
vn -0.0028 -0.9999 -0.0097
vn -0.0036 -0.9999 -0.0117
vn -0.0003 -1.0000 -0.0046
vn -0.0004 -1.0000 -0.0050
vn 0.0002 -0.9998 -0.0178
vn 0.0003 -0.9999 -0.0163
vn 0.0002 -1.0000 -0.0034
vn 0.0014 -0.9999 -0.0100
vn 0.0013 -1.0000 -0.0077
vn 0.0004 -1.0000 -0.0019
vn 0.0018 -1.0000 -0.0045
vn 0.0000 -1.0000 0.0000
vn 0.0018 -1.0000 -0.0046
usemtl Shell008.001
s off
f 1//1 5//1 2//1
f 6//2 4//2 7//2
f 6//3 8//3 4//3
f 14//4 6//4 7//4
f 12//5 11//5 33//5
f 6//6 17//6 8//6
f 18//7 16//7 11//7
f 15//8 20//8 19//8
f 5//9 13//9 2//9
f 14//10 17//10 6//10
f 15//11 13//11 10//11
f 10//12 13//12 5//12
f 23//13 22//13 21//13
f 14//14 24//14 17//14
f 4//15 3//15 7//15
f 7//16 3//16 28//16
f 7//17 28//17 14//17
f 23//18 30//18 31//18
f 33//19 30//19 34//19
f 34//20 30//20 23//20
f 31//21 22//21 23//21
f 17//22 9//22 8//22
f 26//23 35//23 27//23
f 31//24 35//24 22//24
f 22//25 35//25 26//25
f 16//26 30//26 11//26
f 31//27 30//27 16//27
f 30//28 33//28 11//28
f 9//29 2//29 32//29
f 27//30 35//30 36//30
f 12//31 33//31 37//31
f 16//32 38//32 31//32
f 29//33 34//33 39//33
f 39//34 34//34 21//34
f 38//35 35//35 31//35
f 18//36 38//36 16//36
f 24//37 25//37 17//37
f 29//38 40//38 33//38
f 35//39 41//39 36//39
f 15//40 40//40 20//40
f 20//41 40//41 29//41
f 38//42 41//42 35//42
f 33//43 34//43 29//43
f 28//44 3//44 42//44
f 17//45 25//45 9//45
f 9//46 25//46 2//46
f 2//47 25//47 1//47
f 32//48 13//48 19//48
f 2//49 13//49 32//49
f 34//50 23//50 21//50
f 37//51 40//51 10//51
f 10//52 40//52 15//52
f 33//53 40//53 37//53
f 13//54 15//54 19//54
f 43//55 28//55 42//55
f 26//56 27//56 44//56
f 45//57 26//57 44//57
f 22//58 26//58 45//58
f 21//59 22//59 45//59
f 46//60 29//60 39//60
f 20//61 29//61 46//61
f 47//62 20//62 46//62
f 19//63 20//63 47//63
f 48//64 19//64 47//64
f 32//65 19//65 48//65
f 9//66 32//66 48//66
f 49//67 9//67 48//67
f 8//68 9//68 49//68
f 50//69 4//69 8//69
f 3//70 4//70 50//70
f 42//70 3//70 50//70
f 27//71 36//71 44//71
f 43//72 42//72 51//72
f 36//73 52//73 44//73
f 44//74 52//74 45//74
f 52//75 18//75 45//75
f 45//76 53//76 21//76
f 18//77 53//77 45//77
f 21//78 12//78 39//78
f 53//79 12//79 21//79
f 39//80 54//80 46//80
f 12//81 54//81 39//81
f 46//82 55//82 47//82
f 54//83 55//83 46//83
f 47//84 56//84 48//84
f 55//85 56//85 47//85
f 48//86 24//86 49//86
f 56//87 24//87 48//87
f 49//88 14//88 8//88
f 24//89 14//89 49//89
f 8//90 57//90 50//90
f 14//91 57//91 8//91
f 50//92 51//92 42//92
f 57//93 51//93 50//93
f 41//94 52//94 36//94
f 41//95 38//95 52//95
f 38//96 18//96 52//96
f 18//97 11//97 53//97
f 11//98 12//98 53//98
f 12//99 37//99 54//99
f 37//100 55//100 54//100
f 37//101 10//101 55//101
f 10//102 5//102 55//102
f 5//103 56//103 55//103
f 5//104 1//104 56//104
f 1//105 25//105 56//105
f 25//106 24//106 56//106
f 14//107 28//107 57//107
f 57//108 43//108 51//108
f 28//109 43//109 57//109
