# Blender v3.0.1 OBJ File: ''
# www.blender.org
mtllib thruster_t200_min.mtl
o T200-THRUSTER-R1
v 0.002857 -0.034298 0.072469
v -0.000710 -0.047033 0.064985
v -0.001984 -0.044293 0.067009
v -0.003311 -0.050844 0.062028
v 0.004741 -0.035149 0.072227
v 0.008581 -0.025886 0.075885
v 0.005806 -0.022810 0.059558
v -0.017768 -0.033126 0.026249
v -0.016541 -0.041124 0.030828
v 0.002265 -0.021384 0.052038
v -0.011660 -0.049585 0.039885
v -0.003530 -0.031772 0.051286
v 0.007058 -0.027702 0.075224
v 0.000820 -0.028527 0.051099
v -0.006449 -0.050620 0.051904
v -0.026990 -0.042707 0.013120
v 0.006176 -0.014286 0.046497
v 0.006829 -0.011046 0.040678
v 0.006757 -0.011087 0.040667
v -0.008487 -0.024048 0.034942
v -0.022119 -0.045760 0.019907
v -0.029436 -0.040700 0.011727
v 0.002004 -0.014164 0.039761
v 0.006740 -0.011096 0.040665
v 0.006841 -0.011042 0.040678
v 0.006852 -0.011061 0.040699
v 0.000793 -0.018643 0.037888
v -0.006315 -0.034474 0.039074
v -0.009609 -0.030247 0.029570
v -0.025821 -0.040297 0.012643
v -0.019184 -0.037717 0.019413
v -0.029322 -0.040912 0.010328
v -0.029491 -0.040920 0.010294
v -0.029481 -0.040920 0.010293
v -0.029522 -0.040919 0.010301
v -0.029692 -0.040886 0.010431
v -0.029637 -0.040903 0.010366
v -0.006338 -0.049038 0.049481
v -0.008132 -0.046588 0.049030
v 0.006858 -0.021537 0.062311
v -0.020163 -0.045554 0.024627
v -0.017256 -0.047969 0.027819
v -0.016880 -0.045420 0.026091
v -0.012111 -0.049417 0.037437
v 0.004887 -0.045385 -0.065985
v 0.000758 -0.036475 -0.071230
v -0.001864 -0.035320 -0.071783
v -0.003568 -0.029123 -0.074492
v -0.002814 -0.028574 -0.074715
v 0.002605 -0.045433 -0.066021
v 0.008560 -0.052930 -0.060063
v 0.007015 -0.051402 -0.061346
v 0.005838 -0.040246 -0.048808
v -0.020910 0.004366 -0.050564
v 0.002409 -0.034219 -0.043347
v -0.001770 -0.024847 -0.033952
v -0.006129 -0.020754 -0.070080
v -0.009434 -0.017228 -0.062815
v -0.003529 -0.028695 -0.052861
v 0.000829 -0.030169 -0.049947
v 0.006987 -0.044157 -0.050391
v -0.006524 -0.018266 -0.067310
v -0.015104 -0.003595 -0.057954
v -0.025999 0.009230 -0.044245
v 0.006740 -0.029901 -0.029601
v -0.029679 0.010583 -0.040546
v -0.023099 0.000941 -0.041991
v -0.016282 -0.006497 -0.051147
v -0.012838 -0.013097 -0.040123
v 0.001009 -0.023870 -0.034600
v -0.006423 -0.016699 -0.049531
v -0.009558 -0.010725 -0.040752
v -0.017118 -0.000745 -0.041947
v -0.023139 0.006378 -0.041443
v -0.029366 0.011410 -0.040276
v -0.029692 0.011248 -0.040319
v 0.006260 -0.037176 -0.041178
v -0.019865 0.002182 -0.052359
v -0.016959 0.000232 -0.051961
v -0.012115 -0.007881 -0.061223
v 0.019391 0.008693 0.007837
v 0.017258 0.011708 0.001638
v 0.019391 0.011071 0.003564
v 0.019391 0.011000 -0.004216
v 0.017258 0.009922 -0.005934
v 0.017258 0.004957 -0.010717
v 0.019391 0.004096 -0.011085
v 0.017258 -0.002793 -0.011358
v 0.019391 -0.002793 -0.011358
v 0.017258 -0.007229 -0.009299
v 0.019391 -0.009494 -0.007408
v 0.017258 -0.010444 -0.005615
v 0.017258 -0.011882 -0.000941
v 0.019391 -0.011882 -0.000941
v 0.017258 -0.010679 0.005847
v 0.019391 -0.010199 0.006650
v 0.017258 -0.004784 0.010923
v 0.019391 -0.002017 0.011938
v 0.017258 0.002046 0.011875
v 0.019391 0.004781 0.010773
v 0.017258 0.008693 0.007837
v 0.017258 -0.013736 0.036510
v 0.017258 -0.005905 -0.016143
v 0.017258 -0.038970 0.002069
v 0.017258 -0.036223 0.015279
v 0.017258 -0.007592 -0.021614
v 0.017258 -0.028297 -0.027082
v 0.017258 -0.037538 -0.011489
v 0.017258 0.035610 0.015913
v 0.017258 0.007328 0.018203
v 0.017258 0.006459 0.022270
v 0.017258 -0.000969 -0.018967
v 0.017258 -0.025656 0.029781
v 0.017258 -0.000493 0.039215
v 0.017258 0.003340 0.022725
v 0.017258 0.005024 0.022786
v 0.017258 0.017082 0.035201
v 0.017258 0.027885 0.026981
v 0.017258 0.013480 -0.036542
v 0.017258 -0.003678 -0.022513
v 0.017258 0.000127 -0.038744
v 0.017258 -0.013283 -0.036731
v 0.017258 0.038597 0.002661
v 0.017258 0.028496 -0.026498
v 0.017258 0.037422 -0.010696
v 0.017258 0.004591 0.016283
v 0.017258 0.000632 0.019176
v 0.019386 -0.012810 -0.040006
v -0.029435 0.029034 0.030299
v -0.029435 0.029034 0.030299
v 0.019391 0.023516 0.034796
v -0.029072 0.029124 0.030223
v -0.043397 0.023612 0.034718
v -0.029479 0.029028 0.030303
v -0.029481 0.029028 0.030303
v -0.043397 0.023612 0.034718
v -0.029491 0.029031 0.030302
v -0.043397 0.023612 0.034718
v -0.043397 0.023613 0.034717
v -0.029522 0.029035 0.030298
v -0.029574 0.029053 0.030280
v -0.043397 0.023613 0.034717
v -0.029583 0.029059 0.030274
v -0.043397 0.023613 0.034717
v -0.043397 0.023614 0.034716
v -0.029726 0.029585 0.029850
v -0.043397 0.023616 0.034716
v -0.043397 0.030617 0.028682
v 0.019388 0.035487 0.022687
v -0.024406 0.031673 0.027659
v -0.017097 0.036523 0.020603
v 0.019391 0.041605 0.005779
v -0.009097 0.040666 0.010778
v 0.001077 0.041740 -0.003190
v 0.001795 0.041180 -0.007426
v -0.043397 0.038927 -0.015256
v 0.006784 0.040419 -0.010761
v 0.019391 0.038922 -0.015267
v 0.019391 0.041363 -0.006183
v -0.043397 0.041365 -0.006172
v -0.007832 0.041886 0.002570
v -0.019958 0.037915 0.018422
v -0.043397 0.041716 0.003259
v -0.043395 0.037025 0.019871
v 0.019394 0.014093 -0.039627
v -0.043397 0.013497 -0.039564
v -0.043397 0.012168 -0.040047
v -0.043397 0.012168 -0.040047
v -0.043397 0.012168 -0.040047
v -0.043397 0.012164 -0.040048
v -0.043397 0.003057 -0.041774
v 0.019391 0.002941 -0.041785
v 0.019391 -0.030980 -0.028444
v -0.043397 -0.030973 -0.028453
v 0.019391 -0.023855 -0.034586
v -0.043397 -0.023839 -0.034596
v -0.043400 -0.011052 -0.040590
v 0.019396 -0.042459 0.003419
v -0.043397 -0.041688 0.006462
v -0.043397 -0.041688 0.006462
v -0.043397 -0.041688 0.006462
v -0.043397 -0.041688 0.006462
v -0.043397 -0.041686 0.006464
v -0.043397 -0.041686 0.006466
v -0.043397 -0.041686 0.006466
v -0.043397 -0.041685 0.006469
v -0.043400 -0.038094 0.018784
v 0.019391 -0.039261 0.015478
v 0.019391 -0.034860 0.023791
v 0.019392 -0.024667 0.034714
v 0.019391 -0.003280 0.041995
v -0.043397 -0.003318 0.041988
v -0.043397 -0.003318 0.041988
v -0.043397 -0.003318 0.041988
v -0.043397 -0.003318 0.041988
v 0.019391 -0.012524 0.040253
v -0.043397 -0.012542 0.040247
v -0.043397 -0.003328 0.041986
v -0.043397 -0.021167 0.036485
v -0.043397 -0.028746 0.030889
v 0.019391 0.001912 0.021830
v 0.019391 -0.005423 -0.015994
v 0.019391 0.005320 0.022958
v 0.019391 0.010768 0.040914
v 0.019391 -0.002251 -0.021618
v 0.019391 -0.004683 -0.022745
v 0.019391 -0.005863 -0.022708
v 0.019391 -0.007971 -0.019213
v 0.019391 -0.038919 -0.016783
v 0.019391 -0.001226 -0.018618
v 0.019394 0.007566 0.018859
v 0.019391 0.005926 0.016694
v 0.019391 0.001125 0.020340
v 0.019391 0.001737 0.017230
v 0.019391 0.031813 -0.027548
v 0.004941 0.079622 -0.006164
v 0.000457 0.079804 0.005285
v -0.001979 0.079785 0.004847
v -0.003314 0.078797 0.013025
v 0.002860 0.079566 -0.006526
v 0.008566 0.078317 -0.015510
v 0.007015 0.078664 -0.013537
v -0.017579 0.046879 0.027847
v -0.021242 0.040565 0.029440
v -0.016297 0.047309 0.020198
v 0.002263 0.055403 -0.007488
v -0.007128 0.067909 0.014539
v -0.000413 0.067221 -0.002349
v -0.008119 0.054274 0.007978
v 0.000681 0.060420 -0.000078
v -0.005375 0.071829 0.016702
v -0.009019 0.063594 0.021108
v 0.006157 0.051430 -0.011077
v -0.026528 0.033352 0.030416
v -0.028323 0.030559 0.030383
v -0.029477 0.029028 0.030303
v -0.013471 0.054856 0.025023
v 0.006977 0.065359 -0.012712
v -0.018174 0.046898 0.026412
v -0.008554 0.049585 0.013651
v -0.043397 0.034851 0.017371
v -0.043397 -0.003279 0.041995
v -0.043397 -0.039507 -0.015178
v 0.019397 -0.037739 0.016741
v -0.043397 -0.030726 0.027756
v -0.043397 0.005007 0.040992
v 0.019397 -0.034363 -0.022681
v -0.043397 -0.035356 -0.021113
v -0.043397 0.015015 -0.035848
v -0.043397 -0.002271 0.039092
v 0.019397 0.030878 0.027018
v -0.043397 0.037396 0.016758
v -0.043397 -0.036979 -0.012976
v -0.043397 -0.038970 0.002070
v 0.019397 0.039187 -0.011701
v -0.043397 0.038613 -0.013469
v -0.043397 -0.036762 0.013734
v 0.019397 -0.028103 0.029849
v 0.019397 0.014080 0.038644
v 0.019397 -0.000172 0.040909
v 0.019397 -0.019146 -0.036340
v -0.043397 -0.000934 -0.041051
v 0.019397 0.000691 -0.040995
v 0.019397 -0.041103 -0.003437
v -0.043397 0.038597 0.002660
v -0.043397 0.037766 -0.009028
v 0.019397 0.040014 0.008695
v 0.019397 0.031268 -0.025908
v -0.043397 -0.020778 -0.035444
v -0.043397 -0.040250 -0.007542
v -0.043397 -0.026228 0.029309
v -0.043397 0.031272 -0.025903
v -0.043397 -0.017341 -0.034744
v -0.043397 -0.013734 0.036510
v 0.019397 0.020438 -0.035443
v -0.043397 -0.027050 -0.028198
v -0.043397 0.027886 0.026980
v -0.043397 0.024725 0.032796
v -0.043397 -0.040348 0.008726
v -0.043397 -0.002483 -0.038864
v -0.043397 0.015508 0.035839
v -0.043397 0.040555 0.002669
v -0.043397 0.018809 -0.036338
v -0.043397 0.030649 -0.028748
v -0.043397 0.023612 0.034718
v -0.043397 0.023612 0.034718
v -0.043397 0.019919 0.037073
v -0.043397 0.029556 -0.025181
v 0.019397 -0.016155 0.037958
v -0.043397 -0.014430 0.038640
v -0.043397 -0.042218 0.001357
v -0.043397 0.006117 0.041638
v 0.019391 0.012237 -0.001568
v 0.017258 0.011505 -0.001307
v 0.017258 0.008959 -0.007550
v 0.019391 0.004096 -0.011085
v 0.017258 0.000111 -0.011867
v 0.019391 -0.007229 -0.009299
v 0.019391 -0.010444 -0.005615
v 0.019391 -0.011957 0.004322
v 0.017258 -0.011296 0.003914
v 0.017258 -0.008785 0.008110
v 0.017258 -0.004412 0.011496
v 0.019391 -0.002017 0.011938
v 0.017258 0.004781 0.010773
v 0.017258 0.011071 0.003564
v 0.017258 -0.003909 -0.016230
v 0.017258 -0.005593 -0.016292
v 0.017258 0.001123 0.020347
v 0.017258 -0.002420 -0.017018
v 0.017258 -0.007021 -0.017187
v 0.017258 0.006682 0.017399
v 0.017258 0.005255 0.016502
v 0.017258 0.003571 0.016441
v 0.017258 0.002081 0.017229
v 0.017258 0.001186 0.018656
v 0.017258 -0.007592 -0.021614
v 0.019391 -0.007747 -0.020361
v 0.017258 -0.002251 -0.021618
v 0.019391 -0.007021 -0.017187
v 0.017258 0.007628 0.019905
v 0.019391 0.005320 0.022958
v -0.043794 0.006603 -0.009799
v -0.043794 0.002105 -0.011718
v -0.043794 0.012194 -0.040326
v -0.043794 -0.012514 0.039968
v -0.043794 -0.021138 0.036213
v -0.043794 0.001923 0.021545
v -0.043794 -0.005584 -0.016575
v -0.043794 -0.003900 -0.016514
v -0.043794 -0.002784 -0.011642
v -0.043794 -0.003272 0.041711
v -0.043794 0.003349 0.022441
v -0.043794 0.006129 0.041353
v -0.043794 0.005033 0.022503
v -0.043794 0.015213 0.038913
v -0.043794 0.006522 0.021714
v -0.043794 0.023526 0.034512
v -0.043794 -0.002242 -0.021903
v -0.043794 0.002952 -0.042068
v -0.043794 -0.003669 -0.022798
v -0.043794 -0.006448 -0.041710
v -0.043794 -0.005353 -0.022860
v -0.043794 -0.015532 -0.039270
v -0.043794 -0.006842 -0.022071
v -0.043794 -0.007799 -0.018960
v -0.043794 -0.036552 -0.021157
v -0.043794 -0.007737 -0.020644
v -0.043794 -0.030971 -0.028729
v -0.043794 -0.023846 -0.034869
v -0.043794 -0.002411 -0.017303
v -0.043794 -0.001515 -0.018729
v -0.043794 -0.001453 -0.020413
v -0.043794 0.030652 0.028371
v -0.043794 0.007418 0.020287
v -0.043794 0.036231 0.020799
v -0.043794 0.007480 0.018604
v -0.043794 0.039988 0.012176
v -0.043794 0.041729 0.002932
v -0.043794 0.006691 0.017114
v -0.043794 0.041372 -0.006467
v -0.043794 0.005264 0.016219
v -0.043794 0.008702 0.007554
v -0.043794 0.038931 -0.015552
v -0.043794 -0.039250 0.015194
v -0.043794 -0.041692 0.006110
v -0.043794 -0.007010 -0.017472
v -0.043794 -0.042050 -0.003289
v -0.043794 -0.040307 -0.012533
v -0.043794 -0.028709 0.030634
v -0.043794 0.001134 0.020056
v -0.043794 -0.034850 0.023507
v -0.043794 0.001196 0.018373
v -0.043794 0.011080 0.003280
v -0.043794 0.011516 -0.001591
v -0.043794 0.034530 -0.023864
v -0.043794 0.009932 -0.006217
v -0.043794 0.028391 -0.030989
v -0.043794 0.020819 -0.036570
v -0.043794 -0.011286 0.003631
v -0.043794 -0.008776 0.007827
v -0.043794 -0.007220 -0.009584
v -0.043794 -0.010435 -0.005898
v -0.043794 -0.011873 -0.001224
v -0.043794 0.002091 0.016945
v -0.043794 -0.004775 0.010638
v -0.043794 0.003580 0.016157
v -0.043794 0.000023 0.011580
v -0.043794 0.004790 0.010488
v 0.017258 -0.001524 -0.018446
v 0.017258 -0.001462 -0.020130
v -0.043788 -0.034612 0.021685
v -0.043788 -0.035192 0.020452
v -0.043788 -0.028962 0.028516
v -0.043788 -0.000160 0.040626
v -0.043788 -0.001513 0.040454
v -0.043788 0.008635 0.039514
v -0.043788 -0.013860 -0.038456
v -0.043788 -0.005274 -0.040661
v -0.043788 -0.037081 -0.017552
v -0.043788 -0.036350 -0.018703
v -0.043788 -0.039819 -0.009122
v -0.043788 0.004955 -0.040661
v -0.043788 0.006275 -0.040321
v -0.043788 0.034292 0.021685
v -0.043788 0.033423 0.022737
v -0.043788 0.038066 0.013665
v -0.043788 0.036760 -0.017552
v -0.043788 0.037182 -0.016255
v -0.043788 0.032012 -0.025036
v -0.043788 -0.004591 -0.040703
v -0.043788 0.004272 -0.040703
v -0.043788 -0.028092 0.029567
v -0.043788 -0.025637 0.031349
v -0.043788 0.009988 0.039344
v -0.043788 0.018229 0.036081
v -0.043788 -0.015181 -0.038117
v -0.043788 -0.022948 -0.033847
v -0.043788 -0.040241 -0.007825
v -0.043788 -0.040798 0.001023
v -0.043788 0.038646 0.012431
v -0.043788 0.040308 0.003724
v -0.043788 0.031281 -0.026188
v -0.043788 0.024818 -0.032256
v -0.043788 -0.019818 0.035578
v -0.043788 -0.020920 0.034776
v -0.043788 -0.011575 0.038841
v -0.043788 0.019498 0.035578
v -0.043788 0.026669 0.030367
v -0.043788 -0.024144 -0.033189
v -0.043788 -0.030605 -0.027121
v -0.043788 -0.040883 0.002384
v -0.043788 -0.039222 0.011091
v -0.043788 0.040564 0.002384
v -0.043788 0.040007 -0.006463
v -0.043788 0.023824 -0.033189
v -0.043788 0.016057 -0.037460
v -0.043788 -0.002300 0.040356
v -0.043788 -0.010307 0.039344
v -0.043788 0.027772 0.029567
v -0.043788 -0.031600 -0.026188
v -0.043788 -0.038967 0.012431
v -0.043788 0.039921 -0.007825
v -0.043788 0.014861 -0.038117
v -0.043794 -0.011873 -0.001224
v -0.043794 0.002105 -0.011718
v -0.043794 -0.007010 -0.017472
v -0.043794 0.003349 0.022441
v -0.043794 -0.003669 -0.022798
v -0.043794 0.009932 -0.006217
v -0.043794 -0.007220 -0.009584
v -0.043794 -0.008776 0.007827
v 0.019391 -0.011882 -0.000941
v -0.043794 -0.007737 -0.020644
v -0.029481 -0.040920 0.010293
v -0.029481 -0.040920 0.010293
v -0.029481 -0.040920 0.010293
v -0.029481 -0.040920 0.010293
v -0.043397 -0.041688 0.006462
v 0.017258 0.004591 0.016283
v 0.017258 0.004591 0.016283
v 0.017258 0.004591 0.016283
v 0.019391 0.001737 0.017230
v 0.019391 0.001737 0.017230
v 0.019391 0.001737 0.017230
v 0.006852 -0.011061 0.040699
v 0.006852 -0.011061 0.040699
v 0.006852 -0.011061 0.040699
v 0.006841 -0.011042 0.040678
v 0.006841 -0.011042 0.040678
v 0.006841 -0.011042 0.040678
v 0.006841 -0.011042 0.040678
v 0.006841 -0.011042 0.040678
v -0.007128 0.067909 0.014539
v -0.007128 0.067909 0.014539
v -0.007128 0.067909 0.014539
v -0.007128 0.067909 0.014539
v -0.008119 0.054274 0.007978
v -0.008119 0.054274 0.007978
v -0.008119 0.054274 0.007978
v -0.008119 0.054274 0.007978
v -0.011660 -0.049585 0.039885
v -0.011660 -0.049585 0.039885
v -0.011660 -0.049585 0.039885
v -0.011660 -0.049585 0.039885
v -0.008132 -0.046588 0.049030
v -0.008132 -0.046588 0.049030
v -0.008132 -0.046588 0.049030
v 0.008560 -0.052930 -0.060063
v 0.008560 -0.052930 -0.060063
v 0.007015 -0.051402 -0.061346
v 0.007015 -0.051402 -0.061346
v 0.019391 -0.039261 0.015478
v 0.019391 -0.034860 0.023791
v 0.001009 -0.023870 -0.034600
v 0.001009 -0.023870 -0.034600
v 0.001009 -0.023870 -0.034600
v 0.000829 -0.030169 -0.049947
v 0.000829 -0.030169 -0.049947
v 0.000829 -0.030169 -0.049947
v 0.000829 -0.030169 -0.049947
v 0.019391 0.004096 -0.011085
v 0.019391 0.004096 -0.011085
v 0.019391 -0.002793 -0.011358
v 0.019391 -0.002793 -0.011358
v 0.019391 -0.002793 -0.011358
v 0.019391 -0.002793 -0.011358
v 0.019391 -0.002793 -0.011358
v 0.019391 -0.002793 -0.011358
v 0.019391 -0.002017 0.011938
v 0.019391 -0.002017 0.011938
v 0.019391 -0.002017 0.011938
v 0.019391 0.004781 0.010773
v 0.019391 0.004781 0.010773
v 0.019391 0.004781 0.010773
v 0.019391 0.004781 0.010773
v 0.019391 0.004781 0.010773
v 0.017258 -0.028297 -0.027082
v 0.017258 -0.037538 -0.011489
v 0.017258 -0.000493 0.039215
v 0.017258 0.017082 0.035201
v 0.017258 0.007328 0.018203
v 0.017258 0.007328 0.018203
v 0.017258 0.007328 0.018203
v 0.017258 0.000632 0.019176
v 0.017258 0.000632 0.019176
v 0.017258 0.000632 0.019176
v 0.017258 0.000632 0.019176
v 0.019386 -0.012810 -0.040006
v 0.019391 -0.023855 -0.034586
v -0.029637 -0.040903 0.010366
v -0.029637 -0.040903 0.010366
v -0.029637 -0.040903 0.010366
v -0.029637 -0.040903 0.010366
v -0.029637 -0.040903 0.010366
v -0.029637 -0.040903 0.010366
v -0.043397 -0.041686 0.006464
v 0.019391 -0.003280 0.041995
v 0.019391 -0.003280 0.041995
v 0.019391 -0.003280 0.041995
v 0.019392 -0.024667 0.034714
v 0.019392 -0.024667 0.034714
v 0.019391 -0.012524 0.040253
v 0.019391 0.005926 0.016694
v 0.019391 0.005926 0.016694
v 0.019391 0.005926 0.016694
v -0.029322 -0.040912 0.010328
v -0.025821 -0.040297 0.012643
v -0.025821 -0.040297 0.012643
v -0.025821 -0.040297 0.012643
v -0.025821 -0.040297 0.012643
v 0.004941 0.079622 -0.006164
v 0.004941 0.079622 -0.006164
v 0.008566 0.078317 -0.015510
v 0.008566 0.078317 -0.015510
v -0.017579 0.046879 0.027847
v -0.017579 0.046879 0.027847
v -0.021242 0.040565 0.029440
v -0.021242 0.040565 0.029440
v -0.021242 0.040565 0.029440
v -0.021242 0.040565 0.029440
v -0.021242 0.040565 0.029440
v -0.001984 -0.044293 0.067009
v -0.001984 -0.044293 0.067009
v -0.003530 -0.031772 0.051286
v -0.003530 -0.031772 0.051286
v -0.003530 -0.031772 0.051286
v -0.003530 -0.031772 0.051286
v -0.003530 -0.031772 0.051286
v 0.007058 -0.027702 0.075224
v 0.007058 -0.027702 0.075224
v 0.007058 -0.027702 0.075224
v 0.002265 -0.021384 0.052038
v 0.002265 -0.021384 0.052038
v 0.002265 -0.021384 0.052038
v 0.002265 -0.021384 0.052038
v -0.017256 -0.047969 0.027819
v -0.017256 -0.047969 0.027819
v -0.029726 0.029585 0.029850
v -0.029726 0.029585 0.029850
v -0.029726 0.029585 0.029850
v -0.029726 0.029585 0.029850
v -0.018174 0.046898 0.026412
v -0.018174 0.046898 0.026412
v -0.018174 0.046898 0.026412
v -0.018174 0.046898 0.026412
v 0.006176 -0.014286 0.046497
v 0.006176 -0.014286 0.046497
v 0.006176 -0.014286 0.046497
v 0.006176 -0.014286 0.046497
v 0.006176 -0.014286 0.046497
v 0.006176 -0.014286 0.046497
v 0.006176 -0.014286 0.046497
v 0.006176 -0.014286 0.046497
v 0.006176 -0.014286 0.046497
v 0.006858 -0.021537 0.062311
v -0.012111 -0.049417 0.037437
v -0.012111 -0.049417 0.037437
v -0.012111 -0.049417 0.037437
v -0.012111 -0.049417 0.037437
v -0.007832 0.041886 0.002570
v -0.007832 0.041886 0.002570
v 0.002263 0.055403 -0.007488
v 0.002263 0.055403 -0.007488
v 0.002263 0.055403 -0.007488
v 0.002263 0.055403 -0.007488
v 0.002605 -0.045433 -0.066021
v 0.002605 -0.045433 -0.066021
v 0.019391 0.004096 -0.011085
v 0.019391 0.004096 -0.011085
v 0.017258 0.000111 -0.011867
v 0.017258 0.000111 -0.011867
v 0.017258 0.000111 -0.011867
v -0.005375 0.071829 0.016702
v -0.009019 0.063594 0.021108
v -0.009019 0.063594 0.021108
v -0.009019 0.063594 0.021108
v -0.019958 0.037915 0.018422
v -0.019958 0.037915 0.018422
v -0.019958 0.037915 0.018422
v -0.020910 0.004366 -0.050564
v -0.020910 0.004366 -0.050564
v -0.020910 0.004366 -0.050564
v -0.016959 0.000232 -0.051961
v -0.016959 0.000232 -0.051961
v -0.016959 0.000232 -0.051961
v -0.016959 0.000232 -0.051961
v -0.016959 0.000232 -0.051961
v -0.016959 0.000232 -0.051961
v -0.016959 0.000232 -0.051961
v 0.019391 0.011071 0.003564
v 0.019391 0.011071 0.003564
v 0.019391 0.011000 -0.004216
v 0.019391 0.011000 -0.004216
v 0.019391 0.011000 -0.004216
v 0.019391 -0.011882 -0.000941
v 0.019391 -0.011882 -0.000941
v 0.019391 -0.011882 -0.000941
v 0.019391 -0.010199 0.006650
v 0.019391 -0.010199 0.006650
v 0.017258 0.013480 -0.036542
v 0.017258 0.000127 -0.038744
v -0.000413 0.067221 -0.002349
v -0.000413 0.067221 -0.002349
v -0.000413 0.067221 -0.002349
v 0.017258 -0.003678 -0.022513
v 0.017258 -0.003678 -0.022513
v 0.017258 -0.003678 -0.022513
v 0.017258 -0.003678 -0.022513
v 0.017258 -0.003678 -0.022513
v 0.017258 -0.003678 -0.022513
v 0.019391 -0.002251 -0.021618
v 0.019391 -0.002251 -0.021618
v 0.019391 -0.002251 -0.021618
v 0.019391 -0.002251 -0.021618
v 0.019391 -0.002251 -0.021618
v 0.019391 -0.004683 -0.022745
v 0.019391 -0.004683 -0.022745
v 0.019391 -0.005863 -0.022708
v 0.019391 -0.005863 -0.022708
v 0.019391 -0.005863 -0.022708
v 0.019391 -0.005863 -0.022708
v 0.019391 -0.005863 -0.022708
v 0.019391 0.001125 0.020340
v 0.019391 0.001125 0.020340
v 0.019391 0.001125 0.020340
v 0.000793 -0.018643 0.037888
v 0.000793 -0.018643 0.037888
v 0.000793 -0.018643 0.037888
v 0.000793 -0.018643 0.037888
v 0.000820 -0.028527 0.051099
v 0.000820 -0.028527 0.051099
v 0.000820 -0.028527 0.051099
v -0.028323 0.030559 0.030383
v -0.028323 0.030559 0.030383
v -0.028323 0.030559 0.030383
v -0.026528 0.033352 0.030416
v -0.026528 0.033352 0.030416
v -0.026528 0.033352 0.030416
v -0.026528 0.033352 0.030416
v -0.026528 0.033352 0.030416
v -0.026528 0.033352 0.030416
v -0.026528 0.033352 0.030416
v -0.026528 0.033352 0.030416
v -0.020163 -0.045554 0.024627
v -0.020163 -0.045554 0.024627
v -0.020163 -0.045554 0.024627
v -0.017118 -0.000745 -0.041947
v -0.017118 -0.000745 -0.041947
v -0.017118 -0.000745 -0.041947
v -0.023139 0.006378 -0.041443
v -0.023139 0.006378 -0.041443
v -0.023139 0.006378 -0.041443
v -0.029366 0.011410 -0.040276
v -0.029366 0.011410 -0.040276
v -0.029366 0.011410 -0.040276
v -0.029366 0.011410 -0.040276
v 0.019391 -0.011957 0.004322
v 0.019391 -0.011957 0.004322
v 0.017258 -0.004412 0.011496
v 0.017258 -0.004412 0.011496
v 0.017258 -0.004412 0.011496
v -0.003529 -0.028695 -0.052861
v -0.003529 -0.028695 -0.052861
v -0.003529 -0.028695 -0.052861
v -0.003529 -0.028695 -0.052861
v -0.016282 -0.006497 -0.051147
v -0.016282 -0.006497 -0.051147
v -0.016282 -0.006497 -0.051147
v -0.012838 -0.013097 -0.040123
v -0.012838 -0.013097 -0.040123
v -0.012838 -0.013097 -0.040123
v -0.012838 -0.013097 -0.040123
v 0.017258 -0.002793 -0.011358
v 0.017258 -0.002793 -0.011358
v 0.017258 -0.007229 -0.009299
v 0.017258 -0.007229 -0.009299
v 0.017258 -0.007229 -0.009299
v 0.017258 -0.007229 -0.009299
v 0.017258 -0.007229 -0.009299
v 0.017258 -0.007229 -0.009299
v 0.017258 -0.007229 -0.009299
v 0.017258 -0.007229 -0.009299
v 0.017258 -0.007229 -0.009299
v 0.017258 0.002046 0.011875
v 0.017258 0.002046 0.011875
v 0.017258 0.002046 0.011875
v 0.017258 0.008693 0.007837
v 0.017258 0.008693 0.007837
v 0.017258 0.008693 0.007837
v 0.017258 0.008693 0.007837
v 0.017258 0.008693 0.007837
v 0.017258 0.008693 0.007837
v 0.017258 0.005024 0.022786
v 0.017258 0.006459 0.022270
v 0.017258 0.006459 0.022270
v 0.017258 0.006459 0.022270
v 0.017258 0.006459 0.022270
v 0.017258 0.006459 0.022270
v -0.043397 0.023614 0.034716
v 0.019391 0.041605 0.005779
v 0.019391 0.041363 -0.006183
v 0.019391 0.041363 -0.006183
v -0.009434 -0.017228 -0.062815
v -0.009434 -0.017228 -0.062815
v -0.009434 -0.017228 -0.062815
v -0.009434 -0.017228 -0.062815
v -0.009434 -0.017228 -0.062815
v -0.019865 0.002182 -0.052359
v -0.019865 0.002182 -0.052359
v -0.019865 0.002182 -0.052359
v -0.019865 0.002182 -0.052359
v -0.019865 0.002182 -0.052359
v -0.019865 0.002182 -0.052359
v -0.019865 0.002182 -0.052359
v -0.015104 -0.003595 -0.057954
v -0.015104 -0.003595 -0.057954
v -0.015104 -0.003595 -0.057954
v 0.006157 0.051430 -0.011077
v 0.006157 0.051430 -0.011077
v 0.006157 0.051430 -0.011077
v 0.006157 0.051430 -0.011077
v 0.006977 0.065359 -0.012712
v 0.002004 -0.014164 0.039761
v 0.002004 -0.014164 0.039761
v 0.002004 -0.014164 0.039761
v 0.006740 -0.011096 0.040665
v 0.006740 -0.011096 0.040665
v 0.006740 -0.011096 0.040665
v 0.006740 -0.011096 0.040665
v 0.001795 0.041180 -0.007426
v 0.001795 0.041180 -0.007426
v 0.001795 0.041180 -0.007426
v -0.000710 -0.047033 0.064985
v 0.004741 -0.035149 0.072227
v 0.004741 -0.035149 0.072227
v 0.004741 -0.035149 0.072227
v -0.043397 -0.003318 0.041988
v 0.017258 -0.007592 -0.021614
v 0.017258 -0.007592 -0.021614
v 0.017258 -0.007592 -0.021614
v 0.019391 -0.007971 -0.019213
v 0.019391 -0.007971 -0.019213
v 0.019391 -0.007971 -0.019213
v 0.019391 -0.007971 -0.019213
v 0.019391 -0.007971 -0.019213
v 0.019391 -0.007971 -0.019213
v 0.019391 -0.030980 -0.028444
v 0.019391 -0.030980 -0.028444
v 0.019391 -0.038919 -0.016783
v -0.008487 -0.024048 0.034942
v -0.008487 -0.024048 0.034942
v -0.008487 -0.024048 0.034942
v 0.017258 -0.005593 -0.016292
v 0.017258 -0.005593 -0.016292
v 0.017258 -0.007021 -0.017187
v 0.017258 -0.007021 -0.017187
v 0.017258 -0.007021 -0.017187
v 0.002409 -0.034219 -0.043347
v 0.002409 -0.034219 -0.043347
v 0.002409 -0.034219 -0.043347
v 0.017258 0.011708 0.001638
v 0.017258 0.011708 0.001638
v 0.017258 0.011708 0.001638
v 0.017258 0.009922 -0.005934
v 0.017258 0.009922 -0.005934
v 0.017258 -0.010679 0.005847
v 0.017258 -0.010679 0.005847
v -0.029491 0.029031 0.030302
v -0.029491 0.029031 0.030302
v -0.029491 0.029031 0.030302
v -0.043397 0.023612 0.034718
v -0.029522 0.029035 0.030298
v -0.029522 0.029035 0.030298
v -0.006129 -0.020754 -0.070080
v -0.006129 -0.020754 -0.070080
v -0.006129 -0.020754 -0.070080
v -0.006129 -0.020754 -0.070080
v -0.006129 -0.020754 -0.070080
v 0.006987 -0.044157 -0.050391
v 0.006260 -0.037176 -0.041178
v -0.029436 -0.040700 0.011727
v -0.029436 -0.040700 0.011727
v -0.029436 -0.040700 0.011727
v -0.029436 -0.040700 0.011727
v -0.029436 -0.040700 0.011727
v -0.016541 -0.041124 0.030828
v -0.016541 -0.041124 0.030828
v 0.019391 0.001912 0.021830
v 0.019391 0.001912 0.021830
v 0.019391 0.001912 0.021830
v 0.019391 0.001912 0.021830
v 0.019391 0.001912 0.021830
v 0.019391 0.001912 0.021830
v 0.019391 0.001912 0.021830
v -0.017768 -0.033126 0.026249
v -0.017768 -0.033126 0.026249
v -0.029477 0.029028 0.030303
v -0.029477 0.029028 0.030303
v -0.029477 0.029028 0.030303
v -0.029477 0.029028 0.030303
v -0.029477 0.029028 0.030303
v 0.006740 -0.029901 -0.029601
v 0.006740 -0.029901 -0.029601
v 0.006740 -0.029901 -0.029601
v 0.006740 -0.029901 -0.029601
v 0.006740 -0.029901 -0.029601
v -0.029692 0.011248 -0.040319
v -0.029692 0.011248 -0.040319
v -0.029692 0.011248 -0.040319
v -0.029692 0.011248 -0.040319
v -0.043397 0.012168 -0.040047
v 0.017258 -0.007592 -0.021614
v 0.017258 -0.007592 -0.021614
v 0.017258 -0.007592 -0.021614
v 0.019391 -0.007747 -0.020361
v 0.019391 -0.009494 -0.007408
v 0.019391 -0.009494 -0.007408
v 0.019391 -0.009494 -0.007408
v 0.017258 0.028496 -0.026498
v 0.017258 0.037422 -0.010696
v -0.024406 0.031673 0.027659
v -0.024406 0.031673 0.027659
v -0.024406 0.031673 0.027659
v -0.024406 0.031673 0.027659
v -0.029072 0.029124 0.030223
v -0.029072 0.029124 0.030223
v -0.009097 0.040666 0.010778
v -0.009097 0.040666 0.010778
v -0.017097 0.036523 0.020603
v -0.017097 0.036523 0.020603
v -0.017097 0.036523 0.020603
v 0.019391 -0.002017 0.011938
v 0.019391 -0.002017 0.011938
v 0.007015 0.078664 -0.013537
v 0.007015 0.078664 -0.013537
v 0.007015 0.078664 -0.013537
v 0.007015 0.078664 -0.013537
v 0.019391 0.010768 0.040914
v 0.019394 0.007566 0.018859
v 0.019394 0.007566 0.018859
v 0.019394 0.007566 0.018859
v 0.019394 0.007566 0.018859
v 0.019394 0.007566 0.018859
v -0.003314 0.078797 0.013025
v -0.003314 0.078797 0.013025
v -0.003314 0.078797 0.013025
v -0.003314 0.078797 0.013025
v -0.003314 0.078797 0.013025
v 0.000457 0.079804 0.005285
v 0.002860 0.079566 -0.006526
v 0.002860 0.079566 -0.006526
v -0.003311 -0.050844 0.062028
v -0.003311 -0.050844 0.062028
v -0.003311 -0.050844 0.062028
v -0.003311 -0.050844 0.062028
v -0.022119 -0.045760 0.019907
v -0.022119 -0.045760 0.019907
v -0.022119 -0.045760 0.019907
v 0.017258 -0.038970 0.002069
v 0.017258 -0.036223 0.015279
v 0.017258 -0.025656 0.029781
v 0.017258 -0.013736 0.036510
v 0.017258 -0.013283 -0.036731
v 0.004887 -0.045385 -0.065985
v 0.004887 -0.045385 -0.065985
v 0.017258 0.004781 0.010773
v 0.017258 0.004781 0.010773
v 0.017258 0.004781 0.010773
v 0.017258 0.007628 0.019905
v 0.017258 0.007628 0.019905
v -0.008554 0.049585 0.013651
v -0.008554 0.049585 0.013651
v -0.008554 0.049585 0.013651
v -0.008554 0.049585 0.013651
v -0.016880 -0.045420 0.026091
v -0.016880 -0.045420 0.026091
v -0.016880 -0.045420 0.026091
v -0.006449 -0.050620 0.051904
v -0.006449 -0.050620 0.051904
v -0.016297 0.047309 0.020198
v -0.016297 0.047309 0.020198
v 0.019394 0.014093 -0.039627
v 0.019391 0.002941 -0.041785
v 0.019391 0.002941 -0.041785
v 0.019391 -0.005423 -0.015994
v 0.019391 -0.005423 -0.015994
v 0.017258 -0.010444 -0.005615
v 0.017258 -0.010444 -0.005615
v 0.017258 -0.010444 -0.005615
v 0.017258 -0.010444 -0.005615
v 0.017258 -0.010444 -0.005615
v 0.017258 -0.010444 -0.005615
v 0.017258 -0.010444 -0.005615
v 0.017258 -0.005905 -0.016143
v 0.017258 -0.005905 -0.016143
v 0.017258 -0.005905 -0.016143
v 0.017258 -0.005905 -0.016143
v -0.025999 0.009230 -0.044245
v -0.025999 0.009230 -0.044245
v -0.025999 0.009230 -0.044245
v -0.025999 0.009230 -0.044245
v -0.012115 -0.007881 -0.061223
v -0.012115 -0.007881 -0.061223
v -0.012115 -0.007881 -0.061223
v 0.019391 0.005320 0.022958
v 0.019391 0.005320 0.022958
v 0.019391 0.005320 0.022958
v -0.043397 0.023612 0.034718
v -0.043397 0.023612 0.034718
v 0.019391 0.012237 -0.001568
v 0.017258 0.008959 -0.007550
v 0.017258 0.008959 -0.007550
v 0.017258 0.008959 -0.007550
v -0.013471 0.054856 0.025023
v -0.013471 0.054856 0.025023
v -0.013471 0.054856 0.025023
v -0.013471 0.054856 0.025023
v -0.013471 0.054856 0.025023
v -0.013471 0.054856 0.025023
v -0.001979 0.079785 0.004847
v -0.001979 0.079785 0.004847
v 0.017258 0.001123 0.020347
v 0.017258 0.001123 0.020347
v 0.008581 -0.025886 0.075885
v 0.008581 -0.025886 0.075885
v 0.017258 0.004957 -0.010717
v 0.017258 0.004957 -0.010717
v 0.017258 -0.004784 0.010923
v 0.017258 -0.004784 0.010923
v -0.043397 0.023613 0.034717
v -0.043397 0.023613 0.034717
v 0.001077 0.041740 -0.003190
v 0.001077 0.041740 -0.003190
v 0.005838 -0.040246 -0.048808
v -0.006423 -0.016699 -0.049531
v 0.019391 -0.007229 -0.009299
v 0.019391 -0.007229 -0.009299
v 0.017258 0.011071 0.003564
v 0.017258 0.011071 0.003564
v 0.017258 0.011071 0.003564
v 0.017258 -0.003909 -0.016230
v 0.019391 0.005320 0.022958
v 0.019391 0.005320 0.022958
v 0.019391 0.005320 0.022958
v -0.001770 -0.024847 -0.033952
v -0.001770 -0.024847 -0.033952
v 0.002857 -0.034298 0.072469
v 0.002857 -0.034298 0.072469
v -0.003568 -0.029123 -0.074492
v -0.003568 -0.029123 -0.074492
v -0.003568 -0.029123 -0.074492
v -0.029522 -0.040919 0.010301
v -0.029522 -0.040919 0.010301
v -0.029522 -0.040919 0.010301
v -0.029522 -0.040919 0.010301
v 0.017258 0.027885 0.026981
v -0.043397 -0.041688 0.006462
v -0.043397 -0.041688 0.006462
v 0.019391 0.038922 -0.015267
v 0.019391 0.031813 -0.027548
v 0.000681 0.060420 -0.000078
v -0.026990 -0.042707 0.013120
v -0.026990 -0.042707 0.013120
v -0.026990 -0.042707 0.013120
v -0.026990 -0.042707 0.013120
v -0.026990 -0.042707 0.013120
v -0.026990 -0.042707 0.013120
v 0.019391 -0.007021 -0.017187
v 0.019391 -0.007021 -0.017187
v 0.017258 0.035610 0.015913
v -0.023099 0.000941 -0.041991
v -0.023099 0.000941 -0.041991
v -0.029574 0.029053 0.030280
v -0.029574 0.029053 0.030280
v -0.029574 0.029053 0.030280
v -0.029574 0.029053 0.030280
v 0.005806 -0.022810 0.059558
v 0.005806 -0.022810 0.059558
v 0.000758 -0.036475 -0.071230
v 0.017258 -0.011882 -0.000941
v 0.017258 -0.011882 -0.000941
v 0.017258 -0.011882 -0.000941
v 0.017258 -0.011882 -0.000941
v 0.019388 0.035487 0.022687
v -0.019184 -0.037717 0.019413
v -0.029435 0.029034 0.030299
v -0.029435 0.029034 0.030299
v -0.029435 0.029034 0.030299
v 0.006829 -0.011046 0.040678
v 0.006829 -0.011046 0.040678
v 0.006829 -0.011046 0.040678
v 0.006829 -0.011046 0.040678
v -0.043397 -0.003318 0.041988
v -0.043397 -0.003318 0.041988
v -0.029679 0.010583 -0.040546
v -0.029679 0.010583 -0.040546
v -0.029679 0.010583 -0.040546
v -0.029679 0.010583 -0.040546
v -0.002814 -0.028574 -0.074715
v -0.002814 -0.028574 -0.074715
v -0.002814 -0.028574 -0.074715
v 0.019391 -0.010444 -0.005615
v 0.019391 -0.010444 -0.005615
v -0.029435 0.029034 0.030299
v -0.029435 0.029034 0.030299
v -0.029435 0.029034 0.030299
v -0.029435 0.029034 0.030299
v -0.029435 0.029034 0.030299
v -0.029435 0.029034 0.030299
v 0.019391 0.023516 0.034796
v 0.019391 0.023516 0.034796
v 0.019391 0.023516 0.034796
v 0.019391 0.023516 0.034796
v -0.043397 0.023613 0.034717
v -0.043397 0.023613 0.034717
v -0.029583 0.029059 0.030274
v -0.029583 0.029059 0.030274
v -0.029583 0.029059 0.030274
v 0.006784 0.040419 -0.010761
v 0.006784 0.040419 -0.010761
v 0.019396 -0.042459 0.003419
v 0.006757 -0.011087 0.040667
v 0.006757 -0.011087 0.040667
v 0.006757 -0.011087 0.040667
v -0.001864 -0.035320 -0.071783
v -0.001864 -0.035320 -0.071783
v 0.019391 0.008693 0.007837
v 0.019391 0.008693 0.007837
v 0.019391 0.008693 0.007837
v -0.029479 0.029028 0.030303
v -0.029481 0.029028 0.030303
v -0.029481 0.029028 0.030303
v -0.029481 0.029028 0.030303
v -0.029481 0.029028 0.030303
v -0.029481 0.029028 0.030303
v -0.043397 0.023612 0.034718
v -0.043397 -0.003318 0.041988
v -0.043397 -0.003318 0.041988
v -0.043397 -0.003318 0.041988
v -0.043397 -0.003318 0.041988
v 0.019391 -0.001226 -0.018618
v 0.019391 -0.001226 -0.018618
v -0.029491 -0.040920 0.010294
v -0.029491 -0.040920 0.010294
v -0.029491 -0.040920 0.010294
v -0.009558 -0.010725 -0.040752
v -0.009558 -0.010725 -0.040752
v 0.017258 0.038597 0.002661
v 0.017258 -0.008785 0.008110
v 0.017258 -0.000969 -0.018967
v 0.017258 -0.000969 -0.018967
v 0.017258 -0.000969 -0.018967
v -0.043397 0.023612 0.034718
v -0.043397 0.023612 0.034718
v 0.017258 0.005255 0.016502
v 0.017258 0.003340 0.022725
v 0.017258 0.003340 0.022725
v 0.017258 0.003340 0.022725
v 0.017258 0.003340 0.022725
v 0.017258 0.003340 0.022725
v 0.017258 0.003340 0.022725
v -0.029692 -0.040886 0.010431
v -0.029692 -0.040886 0.010431
v -0.029692 -0.040886 0.010431
v -0.043397 -0.041686 0.006466
v -0.043397 0.023613 0.034717
v -0.009609 -0.030247 0.029570
v -0.009609 -0.030247 0.029570
v -0.043397 -0.041688 0.006462
v -0.043397 -0.041688 0.006462
v -0.043397 -0.041688 0.006462
v -0.043397 0.023612 0.034718
v -0.043397 0.023612 0.034718
v -0.043397 0.023616 0.034716
v -0.043397 0.012168 -0.040047
v -0.043397 -0.041688 0.006462
v -0.043397 -0.041686 0.006466
v -0.043397 0.012168 -0.040047
vn 0.0101 -0.5920 0.8059
vn 0.0759 -0.5599 0.8251
vn -0.0278 -0.6007 0.7990
vn -0.0503 -0.4133 0.9092
vn -0.0657 -0.4050 0.9120
vn 0.0671 -0.3904 0.9182
vn -0.0432 -0.3614 0.9314
vn 0.8890 -0.3640 -0.2779
vn 0.9179 -0.2968 -0.2633
vn 0.8976 -0.3307 -0.2913
vn 0.5452 -0.4199 -0.7256
vn 0.2701 -0.6912 -0.6703
vn 0.5518 -0.4113 -0.7255
vn -0.5011 0.7788 0.3774
vn -0.4725 0.7917 0.3873
vn -0.4657 0.7976 0.3832
vn -0.5542 0.7517 0.3574
vn -0.5542 0.7517 0.3575
vn 0.4344 0.7599 0.4835
vn 0.4228 0.7583 0.4961
vn 0.4368 0.7638 0.4751
vn 0.8002 -0.5589 -0.2175
vn -0.0642 -0.8680 -0.4924
vn -0.0642 -0.8680 -0.4925
vn -0.0643 -0.8679 -0.4925
vn 0.1813 -0.7509 -0.6350
vn -0.1303 -0.8860 -0.4451
vn -0.1300 -0.8853 -0.4464
vn -0.2961 -0.9042 -0.3079
vn -0.2961 -0.9041 -0.3079
vn -0.1089 -0.9806 0.1629
vn -0.1097 -0.9809 0.1607
vn -0.1091 -0.9807 0.1621
vn -0.6911 -0.6930 0.2054
vn -0.6908 -0.6929 0.2063
vn -0.6911 -0.6930 0.2053
vn 0.8747 -0.4032 -0.2689
vn 0.8384 -0.4732 -0.2703
vn 0.8402 -0.4208 -0.3421
vn 0.9078 -0.3169 -0.2747
vn -0.9420 -0.0599 0.3301
vn -0.9455 0.0966 0.3111
vn -0.9066 0.1840 0.3798
vn 0.7463 -0.5725 -0.3395
vn 0.8605 -0.3108 -0.4037
vn 0.9280 -0.3097 -0.2070
vn 0.9299 -0.2968 -0.2170
vn 0.9255 -0.3214 -0.2003
vn -0.7873 0.5519 0.2747
vn -0.6985 0.6413 0.3175
vn -0.7725 0.5679 0.2840
vn -0.8555 0.4165 0.3076
vn -0.8514 0.4275 0.3038
vn -0.8457 0.4423 0.2986
vn -0.9114 0.2734 0.3074
vn -0.9028 0.2246 0.3668
vn -0.0800 -0.9954 -0.0521
vn -0.4514 -0.8838 0.1230
vn -0.4553 -0.8821 0.1209
vn -0.9351 0.0213 0.3538
vn -0.6313 0.6625 0.4031
vn -0.6999 0.6373 0.3224
vn -0.6978 0.6394 0.3230
vn -0.7220 0.5896 0.3621
vn -0.8431 0.4488 0.2962
vn -0.8447 0.1624 0.5100
vn -0.8330 0.1731 0.5254
vn -0.8115 0.1916 0.5521
vn -0.8814 0.0658 0.4677
vn -0.8255 -0.1021 0.5551
vn -0.8430 -0.0592 0.5346
vn -0.7619 -0.5527 0.3378
vn -0.7124 -0.6646 0.2254
vn -0.7582 -0.5602 0.3335
vn -0.8900 0.1071 0.4433
vn -0.8720 -0.2526 0.4192
vn -0.7783 -0.5590 0.2860
vn -0.7941 -0.5023 0.3421
vn -0.7799 -0.5528 0.2934
vn -0.8656 0.1989 0.4596
vn -0.8635 0.1442 0.4832
vn -0.8040 0.4051 0.4353
vn 0.6282 -0.4336 -0.6460
vn 0.6283 -0.4337 -0.6458
vn 0.6285 -0.4337 -0.6456
vn 0.8885 -0.3665 -0.2760
vn 0.8352 -0.4711 -0.2838
vn 0.9204 -0.3388 -0.1950
vn -0.6810 -0.7130 0.1668
vn 0.7136 -0.4461 -0.5401
vn 0.7652 -0.4348 -0.4748
vn 0.7412 -0.4484 -0.4995
vn 0.8767 -0.3129 -0.3654
vn 0.8608 -0.3840 -0.3341
vn 0.8427 -0.2808 -0.4594
vn 0.8082 -0.4708 -0.3539
vn 0.8615 -0.2409 -0.4470
vn 0.8223 -0.5202 -0.2306
vn 0.7937 -0.2792 -0.5404
vn -0.2723 0.8534 0.4445
vn -0.2722 0.8535 0.4443
vn -0.2722 0.8535 0.4444
vn 0.7585 -0.2823 -0.5873
vn 0.7358 -0.3043 -0.6049
vn 0.7345 -0.3070 -0.6052
vn 0.7293 -0.3275 -0.6007
vn -0.0686 -0.9964 -0.0499
vn -0.2284 -0.9733 -0.0242
vn -0.2266 -0.9737 -0.0235
vn -0.2279 -0.9734 -0.0237
vn 0.9283 -0.3002 -0.2196
vn -0.7984 0.4137 0.4376
vn 0.0140 -0.3975 -0.9175
vn 0.0180 -0.3951 -0.9184
vn 0.0037 -0.4238 -0.9057
vn -0.0252 -0.4848 -0.8743
vn 0.0171 -0.5354 -0.8445
vn 0.0256 -0.5646 -0.8249
vn 0.0838 -0.5897 -0.8033
vn 0.0252 -0.6046 -0.7962
vn 0.9110 0.3731 -0.1758
vn 0.9218 0.3620 -0.1389
vn 0.8979 0.4088 -0.1630
vn 0.6861 0.7265 0.0391
vn 0.6665 0.7418 0.0745
vn 0.6378 0.7602 0.1234
vn -0.0309 0.3210 -0.9466
vn -0.0310 0.3232 -0.9458
vn -0.0308 0.3215 -0.9464
vn -0.5510 0.4399 -0.7091
vn 0.8969 0.4204 -0.1376
vn 0.7480 0.5432 -0.3813
vn 0.8001 0.5391 -0.2630
vn 0.9235 0.3667 -0.1124
vn 0.9231 0.3679 -0.1121
vn 0.9298 0.3361 -0.1502
vn -0.4612 0.2994 -0.8353
vn -0.4612 0.2973 -0.8360
vn -0.4618 0.2963 -0.8361
vn 0.6396 0.6164 -0.4593
vn 0.8586 0.5076 -0.0726
vn 0.8928 0.4444 -0.0735
vn -0.6316 0.1992 -0.7493
vn -0.5049 0.3113 -0.8051
vn -0.6460 0.1865 -0.7402
vn -0.9032 -0.3576 -0.2373
vn -0.9031 -0.3960 -0.1658
vn -0.8568 -0.4738 0.2033
vn -0.8114 -0.5074 0.2902
vn -0.8446 -0.4803 0.2364
vn -0.9187 -0.3910 0.0561
vn -0.9138 -0.4016 0.0602
vn -0.9088 -0.4121 0.0644
vn -0.9239 -0.3791 0.0515
vn -0.9363 -0.3204 -0.1440
vn -0.9217 -0.0816 -0.3792
vn -0.9217 -0.0823 -0.3791
vn -0.9218 -0.0820 -0.3790
vn -0.6111 -0.6795 0.4060
vn -0.6894 -0.6001 0.4057
vn -0.7511 -0.5614 0.3473
vn -0.6903 -0.5991 0.4055
vn -0.7669 -0.5915 0.2490
vn -0.7957 -0.5960 -0.1082
vn -0.8354 -0.5085 -0.2087
vn -0.8298 -0.5239 -0.1924
vn -0.8606 -0.3991 -0.3163
vn -0.8060 -0.5033 -0.3116
vn -0.8053 -0.5026 -0.3144
vn -0.8052 -0.5028 -0.3145
vn -0.8676 -0.4942 -0.0547
vn -0.8677 -0.4965 -0.0262
vn -0.7902 -0.5091 0.3411
vn -0.7027 -0.5932 0.3928
vn -0.6122 0.3060 -0.7291
vn -0.6123 0.3057 -0.7291
vn -0.6122 0.3059 -0.7291
vn 0.8885 0.4209 -0.1831
vn 0.8044 0.5066 -0.3105
vn 0.8043 0.5067 -0.3104
vn 0.8043 0.5066 -0.3104
vn 0.9950 0.0606 -0.0794
vn 0.9922 0.0844 -0.0915
vn -0.6212 0.2951 -0.7259
vn -0.3392 0.4951 -0.7999
vn 0.6561 0.7116 -0.2512
vn 0.6562 0.7116 -0.2513
vn 0.6562 0.7116 -0.2512
vn 0.7298 0.6559 -0.1929
vn 0.7298 0.6559 -0.1928
vn 0.8763 0.4743 -0.0849
vn 0.8499 0.4796 -0.2182
vn 0.8166 0.5692 -0.0958
vn 0.8083 0.5413 -0.2316
vn 0.9283 0.3375 -0.1558
vn 0.8628 0.5054 0.0085
vn 0.8066 0.4464 -0.3875
vn 0.8430 0.5340 0.0655
vn 0.7983 0.5907 -0.1169
vn 0.7642 0.6407 0.0747
vn 0.7057 0.7085 0.0006
vn 0.7327 0.6770 0.0691
vn -0.2765 0.4605 -0.8435
vn -0.7909 -0.5936 0.1489
vn 0.0341 -0.8941 -0.4465
vn 0.1119 -0.8780 -0.4655
vn 0.1755 -0.8602 -0.4787
vn -0.2934 -0.9560 0.0088
vn 0.2933 -0.9305 0.2195
vn -0.2057 -0.6822 0.7016
vn -0.2237 -0.6762 0.7019
vn -0.1683 -0.6939 0.7001
vn -0.1605 -0.6962 0.6997
vn 0.1162 -0.0753 0.9904
vn 0.1370 -0.0816 0.9872
vn 0.0264 -0.0478 0.9985
vn 0.0000 -0.0397 0.9992
vn 0.0000 0.4210 0.9071
vn -0.2190 0.4955 0.8406
vn 0.2124 0.7363 0.6425
vn -0.1119 0.9435 0.3119
vn -0.1756 0.9409 0.2895
vn -0.0341 0.9410 0.3367
vn 0.0000 0.9381 0.3463
vn -0.0264 0.9829 -0.1824
vn 0.0000 0.9847 -0.1744
vn -0.1162 0.9711 -0.2086
vn -0.1371 0.9671 -0.2144
vn 0.0699 0.6347 -0.7696
vn 0.1371 0.6463 -0.7507
vn -0.2414 0.5408 -0.8058
vn -0.2912 0.5193 -0.8035
vn 0.2806 0.1325 -0.9506
vn -0.2806 -0.1621 -0.9460
vn 0.2189 -0.5065 -0.8340
vn 0.0000 -0.6003 -0.7998
vn 0.0000 -0.8993 -0.4373
vn -1.0000 -0.0000 0.0000
vn -1.0000 0.0003 0.0000
vn 0.0000 0.0000 0.7632
vn -0.0000 0.6461 0.7632
vn 0.0015 0.6399 0.7684
vn 0.0086 0.6959 0.7181
vn 0.0017 0.6513 0.7588
vn -0.0007 0.0019 1.0000
vn 0.0015 -0.0003 1.0000
vn 0.0000 0.0000 1.0000
vn -0.0255 0.0670 0.9974
vn -0.0500 -0.0195 0.9986
vn 0.0000 0.0000 0.9974
vn -0.0005 0.0011 1.0000
vn -0.0043 -0.0017 1.0000
vn -0.0024 0.0062 1.0000
vn -0.0037 0.0031 1.0000
vn 0.3150 -0.0089 0.9490
vn 0.3279 0.0174 0.9445
vn 0.3219 0.0270 0.9464
vn -0.0154 0.6528 0.7574
vn 0.0022 0.7744 0.6327
vn -0.0014 0.7413 0.6712
vn 0.0189 0.8437 0.5364
vn -0.0053 0.8601 0.5101
vn 0.0008 0.7905 0.6125
vn 0.0179 0.7110 0.7029
vn 0.0130 0.6972 0.7168
vn 0.0146 0.9873 0.1584
vn -0.0001 0.9525 0.3046
vn -0.0119 0.9992 0.0394
vn 0.0087 0.9206 -0.3904
vn -0.0011 0.9665 -0.2566
vn 0.0127 0.9718 -0.2354
vn -0.0089 0.9839 -0.1784
vn 0.0173 0.9996 -0.0202
vn -0.0051 0.8954 0.4452
vn -0.0024 0.9358 0.3526
vn -0.0090 0.9933 0.1150
vn 0.0052 0.3850 -0.9229
vn 0.0010 0.2232 -0.9748
vn -0.0033 0.2851 -0.9585
vn -0.0573 -0.9516 0.3020
vn -0.0614 -0.9529 0.2971
vn -0.0567 -0.9518 0.3013
vn -0.0022 0.2227 -0.9749
vn -0.0106 0.2165 -0.9762
vn -0.0070 0.2383 -0.9712
vn -0.0133 0.0541 -0.9984
vn 0.0071 -0.2859 -0.9582
vn 0.0083 -0.2001 -0.9797
vn 0.0149 -0.0915 -0.9957
vn 0.0027 0.0117 -0.9999
vn -0.0025 0.0684 -0.9977
vn 0.0075 0.1900 -0.9818
vn -0.0034 -0.4966 -0.8680
vn -0.0073 -0.5461 -0.8377
vn -0.0018 -0.6099 -0.7924
vn -0.0046 -0.7543 -0.6566
vn 0.0136 -0.6529 -0.7574
vn 0.0047 -0.6420 -0.7667
vn 0.0053 -0.5483 -0.8363
vn 0.0012 -0.0424 -0.9991
vn -0.0122 -0.2588 -0.9659
vn -0.0009 -0.9988 0.0484
vn 0.0100 -0.9141 0.4055
vn 0.0100 -0.9609 0.2767
vn -0.0051 -0.9859 0.1675
vn 0.0265 -0.9948 0.0986
vn 0.0452 -0.9986 0.0279
vn -0.0012 0.0239 0.9997
vn -0.0306 -0.0017 0.9995
vn 0.0000 0.0000 0.9997
vn 0.2110 -0.7768 -0.5934
vn 0.2132 -0.7901 -0.5747
vn 0.2106 -0.7779 -0.5921
vn -0.1658 -0.6746 0.7193
vn -0.1675 -0.6631 0.7295
vn -0.1643 -0.6783 0.7162
vn 0.0561 -0.9984 0.0079
vn -0.0164 -0.9677 0.2516
vn 0.0566 -0.9984 0.0060
vn 0.0150 -0.9487 0.3157
vn -0.0483 -0.9508 0.3060
vn -0.0477 -0.9494 0.3104
vn -0.0098 -0.8900 0.4559
vn -0.0010 -0.9341 0.3571
vn 0.0135 -0.8146 0.5799
vn -0.0108 -0.7445 0.6675
vn 0.0033 -0.5782 0.8159
vn -0.0083 -0.4859 0.8739
vn 0.0169 -0.3401 0.9402
vn -0.0110 -0.3008 0.9536
vn 0.0002 -0.2002 0.9797
vn 0.0030 -0.1918 0.9814
vn -0.0025 -0.0162 0.9999
vn -0.0158 0.0024 0.9999
vn 0.0000 0.0000 0.9999
vn -0.0004 -0.0016 1.0000
vn -0.0016 0.0002 1.0000
vn 0.0133 -0.1852 0.9826
vn -0.0025 -0.3112 0.9504
vn 0.0044 -0.2954 0.9554
vn -0.0023 -0.4942 0.8693
vn -0.0016 -0.5102 0.8601
vn -0.0151 -0.6969 0.7170
vn 0.0119 -0.7618 0.6477
vn -0.3353 0.3943 0.8556
vn -0.5263 0.3637 0.7686
vn -0.4534 0.3545 0.8178
vn 1.0000 0.0000 0.0000
vn 1.0000 0.0001 0.0001
vn 1.0000 0.0000 0.0002
vn 1.0000 0.0001 -0.0001
vn 1.0000 -0.0001 0.0001
vn 1.0000 -0.0001 0.0000
vn 1.0000 -0.0003 -0.0001
vn 1.0000 -0.0001 -0.0001
vn 1.0000 -0.0000 -0.0003
vn 1.0000 0.0000 -0.0002
vn 1.0000 0.0000 -0.0001
vn 1.0000 0.0001 -0.0002
vn 1.0000 0.0002 0.0002
vn 1.0000 -0.0001 -0.0003
vn 1.0000 0.0002 0.0001
vn 1.0000 0.0000 0.0001
vn -0.0176 0.9983 0.0564
vn -0.0251 0.9929 0.1159
vn -0.0123 0.9991 0.0416
vn -0.0106 0.9962 -0.0864
vn -0.0186 0.9975 -0.0684
vn 0.0905 0.9905 -0.1032
vn -0.0035 0.9915 -0.1297
vn -0.9241 0.2090 -0.3200
vn -0.9144 0.1641 -0.3702
vn -0.8984 0.2416 -0.3668
vn -0.5612 -0.0553 -0.8258
vn -0.5668 -0.0542 -0.8221
vn -0.5666 -0.0508 -0.8224
vn 0.8022 0.0628 0.5938
vn 0.8031 0.0614 0.5927
vn 0.8040 0.0600 0.5916
vn 0.2578 -0.2388 0.9362
vn 0.2575 -0.2392 0.9362
vn 0.2577 -0.2389 0.9362
vn -0.2121 0.1110 0.9709
vn -0.1159 0.0538 0.9918
vn -0.1139 0.0529 0.9921
vn -0.0000 -0.0550 0.9985
vn 0.0000 0.0000 0.9985
vn -0.4416 0.2747 0.8541
vn -0.4207 0.2762 0.8641
vn -0.4324 0.2810 0.8568
vn 0.1064 -0.0980 0.9895
vn 0.1069 -0.1020 0.9890
vn -0.0000 -0.0256 0.9997
vn -0.2112 0.1319 0.9685
vn -0.2793 0.1674 0.9455
vn -0.7285 0.5559 0.4004
vn -0.6200 0.4254 0.6593
vn -0.4698 0.3059 0.8281
vn -0.3630 0.2277 0.9035
vn 0.8974 -0.0340 0.4399
vn 0.8971 -0.1232 0.4244
vn 0.9130 -0.0775 0.4006
vn 0.8887 -0.0865 0.4502
vn 0.9126 -0.0437 0.4064
vn 0.9303 -0.0348 0.3652
vn 0.9301 -0.0350 0.3656
vn -0.9423 0.3140 -0.1159
vn -0.9430 0.1812 -0.2790
vn 0.0394 0.4518 0.8912
vn 0.0379 0.4559 0.8892
vn 0.0414 0.4567 0.8887
vn 0.8875 -0.1672 0.4294
vn -0.8627 0.4821 -0.1528
vn -0.8428 0.5212 0.1342
vn -0.8414 0.5218 0.1406
vn -0.9079 0.3349 -0.2520
vn -0.8560 0.0530 -0.5142
vn -0.8534 0.0464 -0.5192
vn -0.8507 0.0399 -0.5241
vn -0.9138 0.1100 -0.3909
vn -0.4423 0.5448 0.7125
vn -0.4424 0.5446 0.7126
vn -0.4426 0.5444 0.7126
vn -0.9343 0.3010 -0.1912
vn -0.9343 0.3008 -0.1912
vn -0.9343 0.3009 -0.1912
vn -0.6673 0.0187 -0.7445
vn -0.6907 -0.0210 -0.7229
vn -0.6806 -0.0054 -0.7326
vn -0.7194 0.0206 -0.6943
vn -0.7837 -0.0384 -0.6199
vn -0.7062 -0.0459 -0.7066
vn -0.7011 -0.0420 -0.7118
vn -0.7005 -0.0424 -0.7123
vn -0.8494 0.0366 -0.5265
vn -0.8684 0.3951 -0.2997
vn -0.8688 0.3950 -0.2986
vn -0.8876 0.3917 -0.2422
vn -0.8101 0.4712 -0.3489
vn -0.8102 0.4726 -0.3468
vn -0.8098 0.4731 -0.3471
vn -0.7327 0.5629 0.3824
vn -0.8604 0.4763 -0.1811
vn -0.8643 0.2677 -0.4259
vn -0.8512 0.3967 -0.3436
vn -0.8003 0.2242 -0.5560
vn -0.8101 0.2187 -0.5440
vn -0.8084 0.2197 -0.5461
vn -0.7900 -0.0404 -0.6117
vn -0.8309 0.0527 -0.5539
vn 0.6203 -0.3603 0.6968
vn 0.5972 -0.3950 0.6981
vn 0.5982 -0.3919 0.6990
vn 0.5954 -0.3953 0.6995
vn 0.8199 -0.2666 0.5066
vn 0.8168 -0.3602 0.4506
vn 0.5811 -0.3921 0.7132
vn -0.5795 0.5148 0.6318
vn -0.5787 0.5127 0.6342
vn -0.5792 0.5112 0.6350
vn -0.7146 0.5288 0.4580
vn -0.7135 0.5297 0.4586
vn -0.7138 0.5293 0.4586
vn 0.8365 -0.2601 0.4822
vn 0.8794 -0.0629 0.4720
vn 0.8351 -0.1939 0.5148
vn 0.8223 -0.2192 0.5251
vn 0.8048 0.0589 0.5907
vn 0.8647 -0.2133 0.4547
vn 0.8528 -0.2230 0.4721
vn 0.8717 -0.2083 0.4437
vn 0.8789 -0.2011 0.4325
vn 0.7999 -0.2276 0.5553
vn 0.7605 -0.3765 0.5290
vn -0.8182 0.2140 -0.5336
vn -0.3939 0.7872 0.4744
vn -0.3944 0.7871 0.4743
vn -0.3946 0.7870 0.4742
vn 0.2773 0.1648 0.9465
vn 0.4379 0.0283 0.8986
vn 0.2867 0.1569 0.9451
vn 0.2070 0.2190 0.9535
vn -0.0989 -0.4184 0.9029
vn 0.2668 -0.7658 0.5851
vn -0.1646 -0.9333 0.3190
vn 0.1011 -0.5184 -0.8492
vn 0.0745 -0.5287 -0.8455
vn 0.1491 -0.4986 -0.8539
vn 0.1701 -0.4894 -0.8553
vn -0.1325 0.7768 -0.6157
vn -0.1328 0.7766 -0.6158
vn -0.1328 0.7770 -0.6154
vn 0.4485 0.8539 -0.2638
vn 0.4485 0.8541 -0.2634
vn 0.4487 0.8539 -0.2636
vn 0.3961 0.5422 0.7411
vn 0.3964 0.5419 0.7411
vn 0.3963 0.5420 0.7411
vn -0.2611 0.1223 0.9575
vn 0.1977 -0.5629 0.8025
vn 0.1979 -0.5627 0.8026
vn 0.1979 -0.5627 0.8027
vn -0.0963 -0.7934 0.6010
vn 0.1703 -0.9636 -0.2059
vn -0.2991 -0.8368 -0.4586
vn 0.1219 -0.3361 -0.9339
vn 0.1011 -0.1586 -0.9822
vn 0.0987 -0.1382 -0.9855
vn 0.0754 0.0361 -0.9965
vn -0.1847 0.3089 -0.9330
vn 0.2675 0.7660 -0.5845
vn 0.0507 0.8832 -0.4662
vn 0.0503 0.8830 -0.4667
vn 0.0504 0.8830 -0.4667
vn -0.3152 0.9312 0.1831
vn -0.0019 -0.9343 -0.3565
vn 0.0019 -0.9260 -0.3776
vn -0.0155 -0.0009 0.9999
vn 0.0007 -0.0119 0.9999
vn -0.0104 -0.0006 0.9999
vn 0.0010 -0.0081 1.0000
vn 0.0085 -0.0153 0.9998
vn -0.0129 0.1325 0.9911
vn -0.0064 -0.3479 0.9375
vn 0.0005 -0.3648 0.9311
vn 0.0061 -0.3911 0.9203
vn 0.0089 0.0478 0.9988
vn -0.0032 -0.0114 -0.9999
vn 0.0034 0.0226 -0.9997
vn 0.0060 -0.3905 -0.9206
vn -0.0018 0.9497 0.3132
vn 0.0056 0.9378 0.3471
vn 0.0026 0.9996 -0.0296
vn 0.0010 0.9998 0.0212
vn -0.0038 0.9887 -0.1498
vn 0.0032 0.9254 -0.3789
vn -0.0024 0.9141 -0.4056
vn -0.0016 0.9988 -0.0488
vn -0.0110 -0.7455 0.6664
vn 0.0133 -0.9204 0.3908
vn 0.0047 -0.6895 0.7243
vn 0.0133 0.3707 0.9287
vn -0.0047 -0.0201 -0.9998
vn 0.0057 0.0219 -0.9997
vn 0.0056 -0.4626 -0.8866
vn 0.0012 -0.8446 -0.5354
vn 0.0055 -0.8319 -0.5548
vn 0.0114 -0.9959 -0.0898
vn -0.0014 -0.9977 -0.0679
vn 0.0026 -0.9962 -0.0871
vn 0.0035 -0.9642 0.2650
vn -0.0127 0.9037 0.4280
vn 0.0163 0.7557 0.6547
vn 0.0145 0.9782 0.2071
vn -0.0024 0.9466 -0.3225
vn 0.0079 0.9620 -0.2731
vn 0.0025 0.7772 -0.6292
vn 0.0003 -0.8202 -0.5720
vn 0.0013 -0.3705 -0.9288
vn -0.0004 -0.7176 -0.6964
vn -0.0013 -0.9154 -0.4026
vn 0.0028 -0.9046 -0.4262
vn 0.0037 0.6802 -0.7330
vn -0.0014 0.6643 -0.7475
vn 0.0029 -0.0674 0.9977
vn -0.0000 -0.1673 0.9859
vn 0.0000 0.0127 0.9999
vn -0.0029 -0.9551 0.2961
vn -0.0051 0.3535 0.9354
vn 0.0012 0.4255 0.9050
vn -0.0012 0.7086 0.7056
vn -0.0025 0.7637 -0.6455
vn 0.0029 0.4796 -0.8775
vn -0.0035 0.7198 0.6942
vn -0.0016 -0.7207 -0.6932
vn 0.0029 -0.7064 -0.7078
vn -0.0045 0.0003 1.0000
vn -0.0017 -0.4250 -0.9052
vn -0.0060 0.5129 -0.8584
vn -0.0048 0.7114 -0.7028
vn 0.0022 0.7338 -0.6794
vn -0.0142 0.6530 0.7572
vn -0.0518 0.7057 0.7066
vn -0.0005 -0.0002 1.0000
vn -0.0001 -0.0007 1.0000
vn -0.0264 -0.0102 0.9996
vn 0.0000 0.0000 0.9993
vn 0.0135 -0.0353 0.9993
vn -0.0000 0.5965 0.8026
vn 0.0105 0.4463 0.8948
vn 0.0063 0.4545 0.8907
vn 0.0023 0.6249 0.7807
vn -0.0542 0.7024 0.7097
vn 0.0037 0.6250 0.7807
vn -0.0036 -0.7332 0.6800
vn 0.0063 -0.7622 0.6473
vn -0.0167 0.6038 0.7970
vn -0.0055 -0.5023 -0.8647
vn -0.0135 -0.9739 0.2267
vn -0.0072 0.9988 0.0481
vn -0.0018 0.3512 -0.9363
vn 0.0009 0.3631 -0.9318
vn 0.0032 0.2568 0.9665
vn 0.0331 -0.0494 0.9982
vn 0.0000 0.0000 0.9981
vn 0.0094 0.0602 0.9981
vn 0.0077 -0.9997 -0.0229
vn 0.0005 -0.3826 0.9239
vn -0.0015 -0.0112 0.9999
vn -0.0043 0.4488 -0.8936
vn -0.0048 0.9805 -0.1966
vn -0.0042 0.9189 -0.3944
vn -0.0013 0.1712 0.9852
vn 0.3421 -0.8701 0.3548
vn -0.5482 -0.6355 0.5437
vn 0.4397 -0.3938 0.8072
vn -0.2806 -0.0381 0.9591
vn 0.2190 0.3222 0.9210
vn 0.0000 0.7534 0.6575
vn 0.0000 0.9558 0.2941
vn 0.3420 0.8063 -0.4825
vn -0.4428 0.5490 -0.7089
vn -0.4603 0.5400 -0.7047
vn 0.2826 -0.0752 -0.9563
vn 0.0000 -0.1689 -0.9856
vn 0.0000 -0.8738 -0.4863
vn -0.2970 0.7449 0.5974
vn -0.2971 0.7449 0.5974
vn 0.3034 0.2133 0.9287
vn -0.2040 -0.2829 0.9372
vn 0.0000 -0.5313 0.8472
vn 0.0000 0.5311 -0.8473
vn -0.0001 0.9051 -0.4253
vn 0.0000 0.9051 -0.4253
vn 0.3052 0.9444 -0.1221
vn 0.3053 0.9444 -0.1221
vn -0.0413 0.9806 0.1916
vn 0.1440 -0.9259 0.3494
vn -0.2527 -0.8485 -0.4650
vn -0.3186 -0.8500 -0.4196
vn -0.3187 -0.8499 -0.4196
vn 0.2353 -0.1403 -0.9617
vn 0.1995 0.7168 -0.6682
vn -0.0022 0.8841 -0.4673
vn -0.0024 0.8841 -0.4673
vn -0.7954 -0.4949 0.3499
vn -0.7172 0.3933 0.5753
vn 0.0000 0.6307 0.7760
vn 0.0000 0.6293 0.7772
vn 0.1291 0.5374 0.8334
vn 0.0409 0.5677 0.8222
vn -0.0242 0.6700 0.7420
vn -0.0257 0.6703 0.7416
vn -0.0307 0.6702 0.7416
vn -0.0278 0.6832 0.7297
vn -0.0334 0.6852 0.7276
vn -0.0305 0.6773 0.7350
vn 0.0035 0.2595 -0.9657
vn -0.0017 0.2560 -0.9667
vn -0.0061 0.2588 -0.9659
vn 0.0323 -0.9835 0.1777
vn 0.0001 -0.9805 0.1963
vn 0.0046 -0.9741 0.2259
vn -0.0045 -0.9773 0.2117
vn -0.0048 -0.9773 0.2116
vn -0.0167 -0.9677 0.2515
vn -0.0150 -0.2611 0.9652
vn 0.0045 -0.2424 0.9702
vn -0.0141 -0.2556 0.9667
vn 0.0195 -0.0537 0.9984
vn 0.0174 -0.0550 0.9983
vn 0.0193 -0.9919 0.1258
vn 0.0175 -0.9904 0.1372
vn 0.0231 -0.9887 0.1478
vn -0.0014 -0.9833 -0.1822
vn -0.0018 -0.1786 0.9839
vn 0.0047 0.3187 -0.9478
vn -0.0519 0.7058 0.7065
vn 0.0000 0.6323 0.7748
vn -0.0094 0.6460 0.7633
vn 0.0062 0.6808 0.7325
vn 0.0580 0.5367 0.8418
vn -0.0565 0.7053 0.7067
vn 0.0033 -0.1471 0.9891
vn 0.0536 -0.2148 0.9752
usemtl None
s 1
f 774//1 564//2 895//3
f 774//1 775//4 564//2
f 775//4 988//5 564//2
f 966//6 571//6 776//6
f 775//4 13//7 988//5
f 7//8 777//9 671//10
f 1008//11 32//12 548//13
f 1032//14 1063//14 592//14
f 1065//15 769//15 594//16
f 593//17 767//18 764//18
f 466//19 469//20 588//21
f 468//22 590//22 668//22
f 1006//23 1084//24 457//25
f 32//12 1008//11 456//26
f 1085//27 1007//28 995//27
f 993//29 1005//29 532//30
f 826//31 1103//32 533//33
f 825//34 37//35 1004//36
f 893//37 920//38 38//39
f 893//37 38//39 2//40
f 777//9 2//40 671//10
f 894//41 3//42 488//43
f 919//44 599//45 38//39
f 38//39 671//10 2//40
f 40//46 965//47 1018//48
f 6//49 596//50 570//51
f 989//52 572//53 569//54
f 563//55 1//55 565//55
f 3//42 566//56 488//43
f 484//57 15//58 896//59
f 482//60 4//60 486//60
f 23//61 574//61 589//61
f 587//62 573//63 596//50
f 766//64 792//64 575//64
f 570//51 596//50 573//63
f 576//65 569//54 572//53
f 827//66 837//67 823//68
f 9//69 22//70 685//71
f 687//72 824//73 899//74
f 487//75 9//69 685//71
f 39//76 41//76 485//76
f 483//77 686//78 577//79
f 488//43 566//56 828//80
f 827//66 568//81 837//67
f 8//82 567//82 793//82
f 21//83 1003//84 551//85
f 671//10 667//86 7//8
f 1019//87 27//87 591//87
f 1018//48 17//88 40//46
f 824//73 16//89 899//74
f 918//90 597//91 578//92
f 673//93 28//94 1109//95
f 14//96 29//96 670//96
f 38//39 599//45 671//10
f 672//97 44//97 917//97
f 673//93 43//98 28//94
f 28//94 916//99 1109//95
f 1031//100 595//101 472//102
f 31//103 916//99 549//104
f 30//105 918//90 898//106
f 15//58 484//57 598//107
f 42//108 600//109 11//110
f 965//47 5//111 1018//48
f 12//112 10//112 20//112
f 992//113 1042//114 1067//115
f 1020//116 1067//115 1042//114
f 1067//115 1020//116 607//117
f 1020//116 905//118 607//117
f 489//119 491//119 906//119
f 905//118 492//120 607//117
f 975//121 45//122 498//123
f 692//124 939//125 695//126
f 1037//127 849//128 696//129
f 1036//130 75//130 941//130
f 1040//131 818//132 62//133
f 45//122 46//134 498//123
f 46//134 1041//135 498//123
f 45//122 975//121 51//136
f 816//137 49//138 990//139
f 819//140 943//141 62//133
f 62//133 499//142 1040//131
f 756//143 815//144 749//145
f 751//146 817//146 745//146
f 753//147 744//147 709//147
f 608//148 52//149 704//150
f 1066//151 703//152 747//153
f 50//154 703//152 1066//151
f 991//155 47//155 746//155
f 57//156 48//157 58//158
f 56//159 800//159 844//159
f 845//160 801//161 77//162
f 987//163 711//163 799//163
f 801//161 704//150 52//149
f 710//164 1012//165 708//166
f 708//166 1012//165 752//167
f 754//168 67//169 1039//170
f 748//171 705//171 707//171
f 68//172 706//172 712//172
f 490//173 61//174 52//149
f 750//175 940//176 623//177
f 498//123 495//178 975//121
f 53//179 497//180 847//181
f 975//121 65//182 821//183
f 66//184 64//184 78//184
f 757//185 755//185 622//185
f 758//186 621//187 624//188
f 628//189 944//190 63//190
f 500//191 976//192 1088//193
f 60//194 72//194 70//194
f 820//195 51//136 975//121
f 52//149 61//174 801//161
f 821//183 820//195 975//121
f 62//133 943//141 499//142
f 501//196 945//196 630//196
f 500//191 629//197 976//192
f 71//198 625//198 689//198
f 976//192 73//199 1088//193
f 691//200 688//200 626//200
f 692//124 627//201 939//125
f 942//202 79//202 54//202
f 815//144 756//143 80//203
f 61//174 77//162 801//161
f 59//204 55//204 69//204
f 1068//205 804//206 83//207
f 631//208 802//208 633//208
f 635//209 803//209 805//209
f 84//210 806//211 967//212
f 84//210 967//212 87//213
f 502//214 86//215 714//216
f 502//214 714//216 504//217
f 89//218 715//218 716//218
f 506//219 718//219 857//219
f 858//220 723//220 929//220
f 91//221 934//222 1022//223
f 91//221 1022//223 94//224
f 638//225 1023//226 807//227
f 638//225 807//227 639//228
f 96//229 95//230 969//231
f 96//229 969//231 512//232
f 98//233 970//233 99//233
f 510//234 725//234 513//234
f 517//235 726//235 728//235
f 514//236 729//236 1069//236
f 1068//205 101//237 804//206
f 525//238 727//238 97//238
f 104//238 901//238 936//238
f 779//238 518//238 519//238
f 779//238 519//238 936//238
f 936//238 519//238 104//238
f 1011//238 522//238 735//238
f 968//238 1091//238 88//238
f 88//238 1091//238 935//238
f 88//238 935//238 720//238
f 90//238 936//238 930//238
f 113//238 97//238 808//238
f 1097//238 520//238 734//238
f 734//238 520//238 521//238
f 734//238 521//238 735//238
f 735//238 521//238 997//238
f 735//238 997//238 1011//238
f 113//238 808//238 901//238
f 930//238 936//238 901//238
f 930//238 901//238 1021//238
f 1021//238 901//238 808//238
f 1091//238 119//238 646//238
f 646//238 119//238 642//238
f 646//238 642//238 779//238
f 779//238 642//238 904//238
f 779//238 904//238 518//238
f 522//238 1011//238 1089//238
f 1091//238 860//238 119//238
f 968//238 85//238 861//238
f 861//238 85//238 82//238
f 1089//238 861//238 522//238
f 522//238 861//238 82//238
f 522//238 82//238 461//238
f 461//238 82//238 730//239
f 461//238 730//239 727//238
f 461//238 727//238 525//238
f 1091//238 968//238 861//238
f 1091//238 861//238 860//238
f 1028//240 1045//241 1051//241
f 1029//242 1053//243 866//244
f 1114//245 1073//246 1095//247
f 1094//248 810//249 812//250
f 139//251 1015//252 1055//247
f 1056//253 1058//254 144//247
f 581//255 1115//256 145//257
f 147//258 579//259 148//260
f 1025//261 870//262 863//263
f 1025//261 863//263 1054//264
f 1053//243 862//265 866//244
f 1025//261 152//266 868//267
f 868//267 870//262 1025//261
f 152//266 973//268 868//267
f 158//269 1060//270 743//271
f 743//271 1060//270 974//272
f 742//273 973//268 152//266
f 164//274 162//275 163//276
f 148//260 579//259 164//274
f 923//277 693//278 694//279
f 1116//280 848//281 852//282
f 1038//283 170//284 169//285
f 170//284 1038//283 171//286
f 529//287 1087//288 925//289
f 1087//288 690//290 925//289
f 690//290 74//291 925//289
f 924//292 693//278 923//277
f 496//293 1087//288 529//287
f 176//294 986//295 174//296
f 789//297 846//298 530//299
f 530//299 846//298 496//293
f 530//299 496//293 529//287
f 171//286 1013//300 177//301
f 1062//302 1026//303 550//304
f 547//305 1062//302 550//304
f 459//306 547//305 455//307
f 1112//308 994//309 999//310
f 998//311 534//312 1117//313
f 182//314 531//315 537//316
f 183//317 1104//318 1106//319
f 822//320 186//321 185//322
f 186//321 822//320 187//323
f 188//324 1026//303 1062//302
f 494//325 1108//326 1026//303
f 494//325 1026//303 188//324
f 541//327 669//328 1108//326
f 541//327 467//329 669//328
f 765//330 1078//331 198//332
f 1080//333 1030//334 1034//335
f 1035//336 471//337 778//247
f 538//338 467//329 543//339
f 543//339 467//329 541//327
f 197//340 199//341 791//342
f 197//340 765//330 198//332
f 200//343 791//342 199//341
f 200//343 836//344 791//342
f 539//345 470//346 26//347
f 196//348 190//349 829//348
f 196//348 829//348 191//348
f 879//348 946//350 1052//351
f 165//352 653//353 172//354
f 172//354 653//353 658//355
f 172//354 658//355 128//356
f 128//356 658//355 659//357
f 783//358 790//357 788//348
f 783//358 788//348 659//357
f 659//357 788//348 175//359
f 659//357 175//359 128//356
f 507//348 926//348 503//348
f 926//348 1082//353 503//348
f 503//348 1082//353 165//352
f 165//352 1082//353 653//353
f 1052//351 946//350 149//360
f 149//360 946//350 880//355
f 149//360 880//355 741//348
f 741//348 880//355 545//361
f 741//348 545//361 159//348
f 545//361 1070//348 1000//348
f 545//361 1000//348 159//348
f 493//349 178//362 926//348
f 926//348 178//362 783//358
f 783//358 178//362 790//357
f 664//348 189//348 463//348
f 1070//348 632//348 1000//348
f 1000//348 632//348 634//348
f 1000//348 634//348 1001//363
f 1001//363 634//348 503//348
f 1001//363 503//348 165//352
f 507//348 859//348 926//348
f 926//348 859//348 493//349
f 493//349 859//348 636//348
f 493//349 636//348 640//348
f 189//348 493//349 463//348
f 463//348 493//349 640//348
f 463//348 640//348 511//348
f 463//348 511//348 545//361
f 545//361 511//348 515//348
f 545//361 515//348 1070//348
f 961//364 885//365 890//366
f 552//367 891//368 961//364
f 552//367 961//364 890//366
f 554//369 878//369 553//369
f 552//367 222//370 891//368
f 474//371 643//372 478//373
f 772//374 760//375 1061//376
f 157//377 762//378 154//379
f 675//380 1027//381 867//382
f 677//383 809//384 1074//385
f 129//386 676//386 1047//387
f 1048//388 674//389 678//390
f 1049//391 680//392 838//391
f 841//393 234//393 1075//393
f 840//247 1072//247 134//247
f 809//384 677//383 813//394
f 813//394 677//383 1014//395
f 679//396 582//397 1057//398
f 679//396 1057//398 1016//399
f 888//400 231//401 217//402
f 217//402 1002//403 763//404
f 217//402 763//404 216//405
f 216//405 763//404 555//406
f 887//407 218//408 474//371
f 615//409 614//410 889//411
f 231//401 232//412 1002//403
f 231//401 1002//403 217//402
f 584//413 955//414 476//415
f 239//416 475//416 922//416
f 892//417 875//418 644//419
f 962//420 220//420 645//420
f 218//408 643//372 474//371
f 957//421 617//422 886//423
f 960//424 219//425 227//426
f 155//427 604//428 233//429
f 773//430 602//430 603//430
f 876//431 238//432 759//433
f 877//434 233//429 604//428
f 606//435 644//419 875//418
f 921//436 619//437 586//438
f 583//439 618//440 580//441
f 585//442 582//397 679//396
f 955//414 584//413 682//443
f 477//444 480//444 225//444
f 921//436 479//445 619//437
f 620//446 229//447 161//448
f 221//449 238//432 876//431
f 481//450 228//450 605//450
f 560//451 681//451 864//451
f 132//452 150//453 683//454
f 871//455 914//455 559//455
f 558//456 915//456 556//456
f 235//457 132//452 683//454
f 684//458 561//459 958//460
f 956//461 562//462 557//463
f 223//464 240//464 959//464
f 761//465 913//466 869//467
f 762//378 153//468 154//379
f 761//465 763//404 1002//403
f 913//466 761//465 1002//403
f 616//469 237//470 912//471
f 616//469 912//471 230//472
f 913//466 151//473 869//467
f 865//474 872//474 224//474
f 229//447 226//475 161//448
f 780//476 782//477 662//478
f 781//479 207//480 657//481
f 781//479 657//481 648//482
f 651//483 206//483 656//483
f 120//484 655//484 1093//484
f 112//485 205//485 1083//485
f 1092//486 210//487 927//488
f 1092//486 927//488 938//489
f 937//490 202//491 787//492
f 103//493 208//494 106//495
f 527//496 464//497 460//498
f 462//499 465//499 546//499
f 126//500 544//501 523//502
f 524//503 212//503 883//503
f 110//504 884//504 738//504
f 737//505 211//505 203//505
f 111//506 947//507 116//508
f 116//508 947//507 1102//509
f 115//510 948//510 832//510
f 1100//511 830//511 528//511
f 526//512 835//513 666//514
f 127//515 213//515 214//515
f 243//516 209//517 1062//302
f 1105//518 1118//247 184//519
f 458//520 1110//247 179//521
f 260//522 246//523 290//524
f 641//525 249//526 280//527
f 114//528 250//529 281//530
f 108//531 253//532 254//533
f 601//534 160//535 163//276
f 257//536 105//537 900//538
f 254//533 900//538 108//531
f 900//538 254//533 257//536
f 245//539 244//540 258//541
f 246//523 260//522 259//542
f 262//543 263//544 261//545
f 248//546 247//547 264//548
f 123//549 265//550 266//551
f 252//552 251//553 267//554
f 256//555 255//556 268//557
f 209//517 243//516 174//296
f 174//296 173//558 209//517
f 713//559 176//294 177//301
f 174//296 843//560 173//558
f 265//550 123//549 109//561
f 109//561 241//562 265//550
f 105//537 257//536 271//563
f 271//563 902//564 105//537
f 242//565 473//566 540//567
f 266//551 125//568 123//549
f 122//569 273//570 276//571
f 272//572 268//557 275//573
f 253//532 108//531 107//574
f 107//574 276//571 253//532
f 118//575 277//576 241//562
f 241//562 109//561 118//575
f 850//577 1119//247 168//577
f 277//576 118//575 117//578
f 122//569 280//527 273//570
f 117//578 281//530 277//576
f 923//277 166//579 284//580
f 284//580 215//581 923//277
f 140//582 138//583 811//582
f 839//584 133//247 950//585
f 1046//586 949//587 1077//588
f 1050//589 287//590 131//591
f 146//592 1107//593 1059//594
f 249//526 641//525 124//595
f 124//595 288//596 249//526
f 278//597 259//542 251//553
f 269//598 261//545 247//547
f 279//599 264//548 244//540
f 694//279 166//579 923//277
f 282//600 267//554 255//556
f 114//528 903//601 250//529
f 903//601 274//602 250//529
f 287//590 204//603 131//591
f 768//604 1079//605 192//606
f 547//305 291//607 1062//302
f 125//568 266//551 288//596
f 276//571 107//574 122//569
f 289//608 260//522 290//524
f 280//527 122//569 121//609
f 280//527 121//609 641//525
f 283//610 275//573 263//544
f 281//530 117//578 114//528
f 771//611 156//612 160//535
f 215//581 284//580 156//612
f 156//612 158//269 215//581
f 156//612 1060//270 158//269
f 156//612 771//611 1060//270
f 1062//302 291//607 243//516
f 204//603 287//590 292//613
f 288//596 124//595 125//568
f 289//608 245//539 258//541
f 271//563 274//602 902//564
f 292//613 242//565 204//603
f 204//603 242//565 540//567
f 542//358 664//348 831//348
f 494//325 541//327 1108//326
f 542//358 189//348 664//348
f 902//564 274//602 903//601
f 525//238 102//238 1097//238
f 951//614 294//614 952//614
f 293//615 953//615 296//615
f 609//616 954//616 611//616
f 610//617 613//617 508//617
f 505//618 297//618 717//618
f 509//218 721//218 977//218
f 298//619 719//619 928//619
f 978//619 931//619 1043//619
f 299//620 92//620 1024//620
f 300//621 301//621 302//621
f 698//622 1090//622 700//622
f 699//623 701//623 873//623
f 304//624 303//624 909//624
f 874//625 907//625 516//625
f 100//236 908//236 731//236
f 81//626 732//626 979//626
f 932//238 982//238 794//238
f 612//238 310//238 307//238
f 612//238 307//238 722//238
f 724//238 982//238 932//238
f 795//238 796//238 933//238
f 312//238 981//238 313//238
f 1096//238 306//238 733//238
f 1096//238 733//238 314//238
f 314//238 733//238 305//238
f 314//238 305//238 315//238
f 315//238 305//238 702//238
f 315//238 702//238 316//238
f 316//238 702//238 964//238
f 612//238 295//238 310//238
f 854//627 856//627 661//628
f 853//629 660//629 649//629
f 647//630 663//630 652//630
f 650//631 654//631 319//631
f 308//632 1009//632 311//632
f 797//633 1010//634 784//634
f 798//635 785//636 855//636
f 317//637 786//637 318//637
f 312//638 881//638 910//638
f 321//639 882//639 985//639
f 911//640 984//641 736//641
f 739//642 322//642 1098//642
f 1101//510 983//510 833//510
f 1099//643 834//643 309//643
f 963//644 201//645 665//644
f 323//348 324//348 325//348
f 326//348 327//348 328//348
f 329//348 330//348 331//348
f 326//348 328//348 332//348
f 334//348 333//348 335//348
f 334//348 335//348 336//348
f 336//348 335//348 337//348
f 336//348 337//348 338//348
f 325//348 339//348 340//348
f 340//348 339//348 341//348
f 340//348 341//348 342//348
f 342//348 341//348 343//348
f 342//348 343//348 344//348
f 344//348 343//348 345//348
f 346//348 347//348 348//348
f 348//348 347//348 349//348
f 348//348 349//348 345//348
f 345//348 349//348 350//348
f 345//348 350//348 344//348
f 331//348 330//348 324//348
f 330//348 351//348 324//348
f 324//348 351//348 352//348
f 324//348 352//348 325//348
f 325//348 352//348 353//348
f 325//348 353//348 339//348
f 338//348 337//348 354//348
f 354//348 337//348 355//348
f 354//348 355//348 356//348
f 356//348 355//348 357//348
f 356//348 357//348 358//348
f 358//348 357//348 359//348
f 359//348 357//348 360//348
f 359//348 360//348 361//348
f 362//348 363//348 360//348
f 360//348 363//348 364//348
f 360//348 364//348 361//348
f 365//348 366//348 367//348
f 367//348 366//348 368//348
f 367//348 368//348 346//348
f 346//348 368//348 369//348
f 346//348 369//348 347//348
f 327//348 370//348 371//348
f 371//348 372//348 373//348
f 363//348 374//348 364//348
f 364//348 374//348 375//348
f 364//348 375//348 376//348
f 376//348 375//348 377//348
f 376//348 377//348 378//348
f 378//348 377//348 323//348
f 378//348 323//348 379//348
f 379//348 323//348 325//348
f 365//348 380//348 381//348
f 331//348 382//348 329//348
f 329//348 382//348 383//348
f 329//348 383//348 367//348
f 367//348 383//348 365//348
f 365//348 383//348 384//348
f 365//348 384//348 380//348
f 372//348 365//348 373//348
f 373//348 365//348 381//348
f 373//348 381//348 385//348
f 385//348 381//348 386//348
f 385//348 386//348 387//348
f 387//348 386//348 388//348
f 387//348 388//348 362//348
f 362//348 388//348 389//348
f 362//348 389//348 363//348
f 327//348 371//348 328//348
f 370//348 372//348 371//348
f 686//78 897//646 577//79
f 525//238 97//238 102//238
f 97//238 113//238 102//238
f 102//238 520//238 1097//238
f 1113//647 1071//648 135//649
f 136//650 1076//651 137//651
f 972//652 814//653 1017//654
f 142//655 141//656 143//657
f 601//534 771//611 160//535
f 162//275 601//534 163//276
f 167//658 697//659 851//660
f 986//295 843//560 174//296
f 713//559 986//295 176//294
f 1013//300 713//559 177//301
f 1111//661 1086//662 35//662
f 181//663 996//664 536//665
f 183//317 535//666 1104//318
f 765//330 770//667 1078//331
f 1081//668 1064//669 18//669
f 194//670 1033//671 25//671
f 822//320 836//344 187//323
f 191//348 829//348 946//350
f 946//350 879//348 191//348
f 36//672 822//320 185//322
f 245//539 279//599 244//540
f 34//673 33//673 180//674
f 262//543 283//610 263//544
f 252//552 278//597 251//553
f 791//342 765//330 197//340
f 269//598 262//543 261//545
f 270//675 248//546 264//548
f 272//572 256//555 268//557
f 242//565 195//676 473//566
f 579//259 162//275 164//274
f 1038//283 1013//300 171//286
f 76//677 1038//283 169//285
f 278//597 246//523 259//542
f 279//599 270//675 264//548
f 282//600 252//552 267//554
f 283//610 272//572 275//573
f 140//582 971//678 138//583
f 236//679 1071//648 1113//647
f 130//680 842//680 285//681
f 1050//589 286//682 287//590
f 146//592 740//683 1107//593
f 24//684 19//684 193//685
f 547//305 459//306 291//607
f 248//546 269//598 247//547
f 256//555 282//600 255//556
f 187//323 836//344 200//343
f 289//608 290//524 245//539
f 31//103 1109//95 916//99
f 578//92 898//106 918//90
f 332//348 328//348 333//348
f 333//348 334//348 332//348
l 392 393
l 394 392
l 408 409
l 410 408
l 436 424
l 637 453
l 400 401
l 402 400
l 428 416
l 433 432
l 328 448
l 452 386
l 425 426
l 427 425
l 393 442
l 409 443
l 418 417
l 401 441
l 442 433
l 319 391
l 413 394
l 423 410
l 380 452
l 419 402
l 430 418
l 435 434
l 439 427
l 323 446
l 448 335
l 450 323
l 395 396
l 397 395
l 411 412
l 412 403
l 420 419
l 443 435
l 449 343
l 310 390
l 403 404
l 980 294
l 429 428
l 396 438
l 432 420
l 437 436
l 404 444
l 440 429
l 383 447
l 451 383
l 414 413
l 415 397
l 422 421
l 444 437
l 375 450
l 331 451
l 345 454
l 1044 320
l 405 406
l 407 405
l 446 331
l 398 399
l 417 398
l 426 414
l 431 430
l 384 445
l 390 391
l 434 422
l 438 439
l 406 440
l 454 346
l 346 447
l 416 415
l 441 431
l 339 449
l 399 411
l 421 407
l 424 423
l 93 301
