# Blender v2.83.0 OBJ File: 'iris_shells.blend'
# www.blender.org
mtllib travessa_f.mtl
v -0.046877 0.019542 -0.167871
v -0.053185 0.019336 -0.167871
v -0.046085 0.018995 -0.167871
v -0.046085 0.001051 -0.167871
v -0.058086 0.013849 -0.167871
v -0.054965 -0.060225 -0.167871
v -0.054434 -0.060880 -0.167871
v -0.067076 -0.068290 -0.167871
v -0.052953 0.020023 -0.167871
v -0.053593 -0.060945 -0.167871
v -0.075960 -0.094477 -0.167871
v -0.054948 -0.000352 -0.167871
v -0.058086 -0.013804 -0.167871
v -0.046877 0.020504 -0.167871
v -0.054799 -0.059398 -0.167871
v -0.054085 -0.001005 -0.167871
v -0.053185 0.020709 -0.167871
v -0.053185 -0.000664 -0.167871
v -0.046085 0.021051 -0.167871
v -0.016775 -0.094449 -0.167871
v -0.061094 -0.041292 -0.167871
v -0.054085 -0.058949 -0.167871
v -0.054085 0.021051 -0.167871
v -0.038548 -0.060829 -0.167871
v -0.052955 -0.060225 -0.167871
v -0.038971 -0.060100 -0.167871
v -0.033834 0.013849 -0.167871
v -0.045185 0.019336 -0.167871
v -0.038085 0.001051 -0.167871
v -0.037284 0.000785 -0.167871
v -0.036925 0.000023 -0.167871
v -0.033834 -0.013804 -0.167871
v -0.038085 -0.018949 -0.167871
v -0.045388 -0.019148 -0.167871
v -0.061094 0.041338 -0.167871
v -0.054948 0.020397 -0.167871
v -0.030825 -0.041292 -0.167871
v -0.037007 -0.020339 -0.167871
v -0.038799 -0.059398 -0.167871
v -0.053185 -0.059291 -0.167871
v -0.037091 -0.019377 -0.167871
v -0.038877 0.019542 -0.167871
v -0.038085 0.018995 -0.167871
v -0.046799 -0.000556 -0.167871
v -0.046085 -0.001005 -0.167871
v -0.038085 -0.058949 -0.167871
v -0.044955 0.020270 -0.167871
v -0.046085 -0.018949 -0.167871
v -0.046948 0.000397 -0.167871
v -0.052953 0.000023 -0.167871
v -0.038877 0.020504 -0.167871
v -0.037091 0.019423 -0.167871
v -0.036911 -0.060105 -0.167871
v -0.037593 -0.060945 -0.167871
v -0.053185 0.000709 -0.167871
v -0.045388 0.020852 -0.167871
v -0.045185 -0.000664 -0.167871
v -0.054948 -0.020352 -0.167871
v -0.054085 -0.021005 -0.167871
v -0.038085 0.021051 -0.167871
v -0.054965 0.059775 -0.167871
v -0.054433 0.059120 -0.167871
v -0.075147 0.094500 -0.167871
v -0.054085 0.001051 -0.167871
v -0.054799 0.000602 -0.167871
v -0.053593 0.059055 -0.167871
v -0.038799 -0.000556 -0.167871
v -0.038085 -0.001005 -0.167871
v -0.054799 0.060602 -0.167871
v -0.038948 0.000397 -0.167871
v -0.037284 -0.059215 -0.167871
v -0.044953 0.000023 -0.167871
v -0.054799 -0.019398 -0.167871
v -0.054085 -0.018949 -0.167871
v -0.053960 0.061079 -0.167871
v -0.045185 0.000709 -0.167871
v -0.037284 -0.000740 -0.167871
v -0.046714 -0.020645 -0.167871
v -0.053185 -0.020664 -0.167871
v -0.046085 -0.021005 -0.167871
v -0.046995 -0.019977 -0.167871
v -0.052953 -0.019977 -0.167871
v -0.030825 0.041338 -0.167871
v -0.037091 0.020623 -0.167871
v -0.053185 -0.019291 -0.167871
v -0.046714 -0.019309 -0.167871
v -0.039009 0.059895 -0.167871
v -0.038433 0.059120 -0.167871
v -0.052955 0.059775 -0.167871
v -0.054799 0.019444 -0.167871
v -0.054085 0.018995 -0.167871
v -0.037593 0.059055 -0.167871
v -0.053121 0.060602 -0.167871
v -0.038714 0.060691 -0.167871
v -0.038877 -0.020458 -0.167871
v -0.045185 -0.020664 -0.167871
v -0.038317 -0.020919 -0.167871
v -0.036911 0.059895 -0.167871
v -0.038085 0.061051 -0.167871
v -0.044955 -0.019730 -0.167871
v -0.037593 -0.020945 -0.167871
v -0.038877 -0.019496 -0.167871
v -0.024844 0.068336 -0.167871
v -0.037284 0.060785 -0.167871
v -0.015960 0.094523 -0.167871
v -0.016775 0.094494 -0.152871
v -0.032766 0.030109 -0.152871
v -0.033300 -0.025186 -0.152871
v -0.024844 -0.068290 -0.152871
v -0.015960 -0.094477 -0.152871
v -0.075960 -0.094477 -0.152871
v -0.063499 -0.054921 -0.152871
v -0.057378 -0.002431 -0.152871
v -0.063245 0.055023 -0.152871
v -0.075960 0.094523 -0.152871
v -0.059053 0.094523 -0.158681
v -0.032867 0.094523 -0.158681
v -0.060357 0.094523 -0.157926
v -0.029053 0.094523 -0.158681
v -0.031846 0.094523 -0.158033
v -0.058460 0.094523 -0.160067
v -0.030653 0.094523 -0.157842
v -0.033459 0.094523 -0.160067
v -0.028460 0.094523 -0.160067
v -0.033216 0.094523 -0.161554
v -0.058704 0.094523 -0.161554
v -0.028704 0.094523 -0.161554
v -0.029790 0.094523 -0.162600
v -0.032130 0.094523 -0.162600
v -0.059790 0.094523 -0.162600
v -0.030960 0.094523 -0.162888
v -0.063459 0.094523 -0.160067
v -0.062867 0.094523 -0.158681
v -0.061563 0.094523 -0.157926
v -0.060960 0.094523 -0.162888
v -0.062407 0.094523 -0.162467
v -0.063314 0.094523 -0.161263
v -0.058460 -0.094477 -0.160067
v -0.033459 -0.094477 -0.160067
v -0.059053 -0.094477 -0.158681
v -0.032867 -0.094477 -0.158681
v -0.060357 -0.094477 -0.157926
v -0.030653 -0.094477 -0.157842
v -0.031846 -0.094477 -0.158033
v -0.062867 -0.094477 -0.158681
v -0.061563 -0.094477 -0.157926
v -0.063459 -0.094477 -0.160067
v -0.058704 -0.094477 -0.161554
v -0.033216 -0.094477 -0.161554
v -0.063314 -0.094477 -0.161263
v -0.059790 -0.094477 -0.162600
v -0.062407 -0.094477 -0.162467
v -0.032130 -0.094477 -0.162600
v -0.060960 -0.094477 -0.162888
v -0.029053 -0.094477 -0.158681
v -0.028460 -0.094477 -0.160067
v -0.028704 -0.094477 -0.161554
v -0.029790 -0.094477 -0.162600
v -0.030960 -0.094477 -0.162888
vn -0.0000 0.0000 -1.0000
vn 0.9458 -0.3208 0.0508
vn 0.9757 -0.2162 -0.0356
vn 0.9655 -0.2398 -0.1012
vn 0.9930 -0.1087 0.0471
vn 0.9994 0.0000 -0.0356
vn 0.9981 -0.0096 -0.0606
vn 0.9930 0.1087 0.0471
vn 0.9641 0.2548 0.0742
vn 0.9803 0.1923 -0.0448
vn 0.9458 0.3208 -0.0508
vn -0.9470 0.3213 0.0000
vn -0.9530 0.3002 -0.0403
vn -0.9755 0.2161 0.0400
vn -0.9934 0.1087 -0.0356
vn -0.9918 0.1156 -0.0539
vn -0.9989 0.0000 0.0471
vn -0.9931 -0.1087 -0.0432
vn -0.9928 -0.1014 -0.0632
vn -0.9625 -0.2544 0.0941
vn -0.9507 -0.3060 -0.0511
vn 0.0000 1.0000 0.0000
vn 0.0012 1.0000 0.0023
vn 0.0019 1.0000 0.0008
vn 0.0012 1.0000 0.0020
vn 0.0005 1.0000 0.0044
vn -0.0007 1.0000 -0.0025
vn -0.0014 1.0000 -0.0010
vn -0.0018 1.0000 -0.0002
vn -0.0009 1.0000 -0.0016
vn -0.0004 1.0000 -0.0012
vn -0.0004 1.0000 -0.0015
vn 0.0000 1.0000 -0.0048
vn 0.0000 0.0000 1.0000
vn 0.0000 -1.0000 0.0000
vn 0.0000 -1.0000 0.0001
vn 0.0022 -1.0000 -0.0004
vn 0.0015 -1.0000 -0.0016
vn 0.0008 -1.0000 -0.0034
vn 0.0011 -1.0000 -0.0020
vn 0.0005 -1.0000 -0.0043
vn -0.0000 -1.0000 -0.0001
usemtl Shell018.001
s off
f 3//1 4//1 5//1
f 6//1 7//1 8//1
f 1//1 2//1 9//1
f 10//1 8//1 7//1
f 10//1 11//1 8//1
f 14//1 1//1 9//1
f 15//1 6//1 8//1
f 16//1 13//1 12//1
f 14//1 9//1 17//1
f 18//1 13//1 16//1
f 19//1 14//1 17//1
f 20//1 11//1 10//1
f 21//1 40//1 22//1
f 21//1 15//1 8//1
f 19//1 17//1 23//1
f 21//1 22//1 15//1
f 24//1 10//1 25//1
f 26//1 24//1 25//1
f 24//1 20//1 10//1
f 27//1 3//1 28//1
f 27//1 29//1 76//1
f 27//1 30//1 29//1
f 27//1 76//1 4//1
f 27//1 31//1 30//1
f 27//1 32//1 31//1
f 27//1 4//1 3//1
f 32//1 33//1 34//1
f 35//1 19//1 23//1
f 32//1 37//1 38//1
f 35//1 23//1 36//1
f 39//1 26//1 25//1
f 32//1 34//1 48//1
f 35//1 36//1 5//1
f 39//1 25//1 40//1
f 32//1 41//1 33//1
f 32//1 38//1 41//1
f 43//1 27//1 28//1
f 43//1 28//1 42//1
f 45//1 13//1 18//1
f 46//1 39//1 40//1
f 45//1 18//1 44//1
f 46//1 40//1 21//1
f 42//1 28//1 47//1
f 45//1 48//1 13//1
f 49//1 18//1 50//1
f 51//1 42//1 47//1
f 49//1 44//1 18//1
f 52//1 27//1 43//1
f 45//1 32//1 48//1
f 20//1 54//1 53//1
f 49//1 50//1 55//1
f 20//1 24//1 54//1
f 51//1 47//1 56//1
f 57//1 32//1 45//1
f 59//1 21//1 58//1
f 60//1 51//1 56//1
f 60//1 56//1 19//1
f 84//1 27//1 52//1
f 4//1 49//1 55//1
f 61//1 62//1 35//1
f 61//1 35//1 63//1
f 5//1 55//1 64//1
f 5//1 65//1 12//1
f 5//1 64//1 65//1
f 5//1 12//1 13//1
f 5//1 4//1 55//1
f 66//1 35//1 62//1
f 68//1 57//1 67//1
f 69//1 61//1 63//1
f 68//1 32//1 57//1
f 70//1 67//1 57//1
f 37//1 46//1 21//1
f 37//1 20//1 53//1
f 37//1 71//1 46//1
f 70//1 57//1 72//1
f 37//1 53//1 71//1
f 13//1 73//1 58//1
f 13//1 74//1 73//1
f 13//1 58//1 21//1
f 13//1 85//1 74//1
f 75//1 69//1 63//1
f 70//1 72//1 76//1
f 77//1 32//1 68//1
f 80//1 79//1 78//1
f 81//1 78//1 79//1
f 80//1 21//1 59//1
f 80//1 59//1 79//1
f 29//1 70//1 76//1
f 31//1 32//1 77//1
f 81//1 79//1 82//1
f 80//1 37//1 21//1
f 83//1 84//1 60//1
f 83//1 27//1 84//1
f 83//1 60//1 19//1
f 83//1 19//1 35//1
f 81//1 82//1 85//1
f 86//1 81//1 85//1
f 87//1 88//1 66//1
f 87//1 66//1 89//1
f 88//1 35//1 66//1
f 88//1 83//1 35//1
f 48//1 85//1 13//1
f 91//1 5//1 90//1
f 48//1 86//1 85//1
f 36//1 90//1 5//1
f 92//1 83//1 88//1
f 87//1 89//1 93//1
f 94//1 87//1 93//1
f 2//1 5//1 91//1
f 97//1 96//1 95//1
f 98//1 83//1 92//1
f 99//1 94//1 93//1
f 99//1 93//1 75//1
f 97//1 37//1 80//1
f 97//1 80//1 96//1
f 99//1 75//1 63//1
f 95//1 96//1 100//1
f 101//1 37//1 97//1
f 102//1 95//1 100//1
f 103//1 104//1 99//1
f 103//1 98//1 104//1
f 103//1 83//1 98//1
f 105//1 99//1 63//1
f 105//1 103//1 99//1
f 102//1 100//1 34//1
f 38//1 37//1 101//1
f 33//1 102//1 34//1
f 3//1 2//1 1//1
f 3//1 5//1 2//1
f 105//2 106//2 103//2
f 103//3 107//3 83//3
f 106//4 107//4 103//4
f 83//5 107//5 27//5
f 27//6 108//6 32//6
f 107//7 108//7 27//7
f 32//8 108//8 37//8
f 37//9 109//9 20//9
f 108//10 109//10 37//10
f 109//11 110//11 20//11
f 11//12 111//12 8//12
f 111//13 112//13 8//13
f 8//14 112//14 21//14
f 21//15 113//15 13//15
f 112//16 113//16 21//16
f 13//17 113//17 5//17
f 5//18 114//18 35//18
f 113//19 114//19 5//19
f 35//20 114//20 63//20
f 114//21 115//21 63//21
f 116//22 118//22 117//22
f 117//22 118//22 120//22
f 117//22 121//22 116//22
f 119//23 122//23 106//23
f 123//22 121//22 117//22
f 106//24 124//24 119//24
f 120//22 118//22 122//22
f 105//25 124//25 106//25
f 125//22 121//22 123//22
f 125//22 126//22 121//22
f 105//22 127//22 124//22
f 105//22 128//22 127//22
f 129//22 130//22 125//22
f 125//22 130//22 126//22
f 105//22 131//22 128//22
f 132//22 115//22 133//22
f 133//22 115//22 134//22
f 134//22 115//22 118//22
f 122//26 115//26 106//26
f 118//22 115//22 122//22
f 135//27 63//27 136//27
f 136//28 63//28 137//28
f 137//29 63//29 132//29
f 132//30 63//30 115//30
f 105//31 63//31 131//31
f 131//32 63//32 129//32
f 129//33 63//33 135//33
f 129//22 135//22 130//22
f 111//34 109//34 112//34
f 110//34 109//34 111//34
f 109//34 108//34 112//34
f 112//34 108//34 113//34
f 108//34 107//34 113//34
f 113//34 107//34 114//34
f 114//34 106//34 115//34
f 107//34 106//34 114//34
f 138//35 139//35 140//35
f 140//35 139//35 141//35
f 144//36 143//36 142//36
f 142//35 143//35 111//35
f 145//35 146//35 111//35
f 111//35 147//35 145//35
f 148//35 149//35 138//35
f 138//35 149//35 139//35
f 11//35 147//35 111//35
f 146//35 142//35 111//35
f 11//35 150//35 147//35
f 151//35 149//35 148//35
f 11//35 152//35 150//35
f 151//35 153//35 149//35
f 11//35 154//35 152//35
f 143//35 110//35 111//35
f 155//35 110//35 143//35
f 156//35 110//35 155//35
f 157//37 20//37 156//37
f 158//38 20//38 157//38
f 159//39 20//39 158//39
f 156//40 20//40 110//40
f 11//41 20//41 159//41
f 11//42 159//42 153//42
f 11//35 153//35 154//35
f 154//35 153//35 151//35
f 141//35 144//35 140//35
f 140//35 144//35 142//35
